G75*
%MOIN*%
%OFA0B0*%
%FSLAX24Y24*%
%IPPOS*%
%LPD*%
%AMOC8*
5,1,8,0,0,1.08239X$1,22.5*
%
%ADD10C,0.0080*%
%ADD11C,0.0050*%
%ADD12C,0.0060*%
%ADD13C,0.0020*%
%ADD14C,0.0059*%
D10*
X000161Y000753D02*
X000161Y006658D01*
X016769Y006658D01*
X016769Y000753D01*
X000161Y000753D01*
X003498Y002548D02*
X003656Y002548D01*
X003498Y002548D02*
X003481Y002549D01*
X003464Y002554D01*
X003449Y002561D01*
X003435Y002571D01*
X003423Y002583D01*
X003413Y002597D01*
X003406Y002612D01*
X003401Y002629D01*
X003400Y002646D01*
X003400Y004811D01*
X003401Y004828D01*
X003406Y004845D01*
X003413Y004860D01*
X003423Y004874D01*
X003435Y004886D01*
X003449Y004896D01*
X003464Y004903D01*
X003481Y004908D01*
X003498Y004909D01*
X003498Y004910D02*
X003656Y004910D01*
X004522Y004910D02*
X004679Y004910D01*
X004679Y004909D02*
X004696Y004908D01*
X004713Y004903D01*
X004728Y004896D01*
X004742Y004886D01*
X004754Y004874D01*
X004764Y004860D01*
X004771Y004845D01*
X004776Y004828D01*
X004777Y004811D01*
X004778Y004811D02*
X004778Y002646D01*
X004777Y002646D02*
X004776Y002629D01*
X004771Y002612D01*
X004764Y002597D01*
X004754Y002583D01*
X004742Y002571D01*
X004728Y002561D01*
X004713Y002554D01*
X004696Y002549D01*
X004679Y002548D01*
X004522Y002548D01*
X004384Y003138D02*
X003793Y003138D01*
X003793Y004319D01*
X004384Y004319D01*
X004384Y003138D01*
X006175Y003389D02*
X006245Y003319D01*
X006455Y003319D01*
X006455Y003739D01*
X006245Y003739D01*
X006175Y003669D01*
X006175Y003389D01*
X006635Y003319D02*
X006915Y003319D01*
X006915Y003739D01*
X006635Y003739D01*
X006775Y003529D02*
X006915Y003529D01*
X007095Y003319D02*
X007376Y003319D01*
X007376Y003739D01*
X007556Y003669D02*
X007626Y003739D01*
X007766Y003739D01*
X007836Y003669D01*
X007836Y003389D01*
X007766Y003319D01*
X007626Y003319D01*
X007556Y003389D01*
X007556Y003669D01*
X007636Y004019D02*
X007496Y004159D01*
X007356Y004019D01*
X007356Y004439D01*
X007106Y004439D02*
X007106Y004509D01*
X006799Y004369D02*
X006729Y004439D01*
X006799Y004369D02*
X006799Y004019D01*
X007036Y004019D02*
X007176Y004019D01*
X007106Y004019D02*
X007106Y004299D01*
X007176Y004299D01*
X006869Y004229D02*
X006729Y004229D01*
X006562Y004229D02*
X006492Y004299D01*
X006352Y004299D01*
X006282Y004229D01*
X006282Y004159D01*
X006562Y004159D01*
X006562Y004089D02*
X006562Y004229D01*
X006562Y004089D02*
X006492Y004019D01*
X006352Y004019D01*
X007636Y004019D02*
X007636Y004439D01*
X007826Y005329D02*
X008326Y005329D01*
X008576Y005579D01*
X008576Y006079D01*
X008326Y006329D01*
X007826Y006329D01*
X007576Y006079D01*
X007326Y006329D01*
X006826Y006329D01*
X006576Y006079D01*
X006326Y006329D01*
X005826Y006329D01*
X005576Y006079D01*
X005576Y005579D01*
X005826Y005329D01*
X006326Y005329D01*
X006576Y005579D01*
X006826Y005329D01*
X007326Y005329D01*
X007576Y005579D01*
X007826Y005329D01*
X007837Y002050D02*
X007587Y001800D01*
X007337Y002050D01*
X006837Y002050D01*
X006587Y001800D01*
X006587Y001300D01*
X006837Y001050D01*
X007337Y001050D01*
X007587Y001300D01*
X007837Y001050D01*
X008337Y001050D01*
X008587Y001300D01*
X008587Y001800D01*
X008337Y002050D01*
X007837Y002050D01*
D11*
X007862Y002254D02*
X007727Y002254D01*
X007682Y002299D01*
X007682Y002479D01*
X007727Y002524D01*
X007862Y002524D01*
X007862Y002254D01*
X007976Y002254D02*
X007976Y002524D01*
X008156Y002524D02*
X007976Y002254D01*
X008156Y002254D02*
X008156Y002524D01*
X008271Y002479D02*
X008316Y002524D01*
X008406Y002524D01*
X008451Y002479D01*
X008451Y002299D01*
X008406Y002254D01*
X008316Y002254D01*
X008271Y002299D01*
X008271Y002389D01*
X008361Y002389D01*
X007301Y002389D02*
X007211Y002434D01*
X007166Y002434D01*
X007121Y002389D01*
X007121Y002299D01*
X007166Y002254D01*
X007256Y002254D01*
X007301Y002299D01*
X007301Y002389D02*
X007301Y002524D01*
X007121Y002524D01*
X007006Y002524D02*
X007006Y002344D01*
X006916Y002254D01*
X006826Y002344D01*
X006826Y002524D01*
X008991Y001351D02*
X015841Y001351D01*
X015841Y006154D01*
X008991Y006154D01*
X008991Y001351D01*
X008406Y004854D02*
X008316Y004854D01*
X008271Y004899D01*
X008271Y004989D01*
X008361Y004989D01*
X008451Y005079D02*
X008451Y004899D01*
X008406Y004854D01*
X008156Y004854D02*
X008156Y005124D01*
X007976Y004854D01*
X007976Y005124D01*
X007862Y005124D02*
X007727Y005124D01*
X007682Y005079D01*
X007682Y004899D01*
X007727Y004854D01*
X007862Y004854D01*
X007862Y005124D01*
X007451Y005124D02*
X007271Y005124D01*
X007361Y005124D02*
X007361Y004854D01*
X007156Y004854D02*
X006976Y005124D01*
X006862Y005079D02*
X006862Y004899D01*
X006817Y004854D01*
X006727Y004854D01*
X006682Y004899D01*
X006682Y005079D01*
X006727Y005124D01*
X006817Y005124D01*
X006862Y005079D01*
X006976Y004854D02*
X007156Y005124D01*
X006351Y005124D02*
X006351Y004854D01*
X006351Y004944D02*
X006216Y004944D01*
X006171Y004989D01*
X006171Y005079D01*
X006216Y005124D01*
X006351Y005124D01*
X006056Y005124D02*
X005876Y004854D01*
X005762Y004854D02*
X005672Y004854D01*
X005717Y004854D02*
X005717Y005124D01*
X005762Y005124D02*
X005672Y005124D01*
X005876Y005124D02*
X006056Y004854D01*
X006171Y004854D02*
X006261Y004944D01*
X008271Y005079D02*
X008316Y005124D01*
X008406Y005124D01*
X008451Y005079D01*
D12*
X005628Y003386D02*
X005514Y003499D01*
X005514Y003159D01*
X005401Y003159D02*
X005628Y003159D01*
X005883Y003159D02*
X005769Y003386D01*
X005996Y003386D02*
X005883Y003159D01*
X005421Y001506D02*
X005421Y001449D01*
X005421Y001336D02*
X005421Y001109D01*
X005478Y001109D02*
X005364Y001109D01*
X005175Y001165D02*
X005119Y001109D01*
X005175Y001165D02*
X005175Y001392D01*
X005232Y001336D02*
X005119Y001336D01*
X004987Y001279D02*
X004930Y001336D01*
X004816Y001336D01*
X004760Y001279D01*
X004760Y001109D01*
X004618Y001165D02*
X004562Y001109D01*
X004391Y001109D01*
X004391Y001336D01*
X004250Y001336D02*
X004080Y001336D01*
X004023Y001279D01*
X004023Y001165D01*
X004080Y001109D01*
X004250Y001109D01*
X004250Y001449D01*
X004618Y001336D02*
X004618Y001165D01*
X004987Y001109D02*
X004987Y001449D01*
X005421Y001336D02*
X005478Y001336D01*
X005619Y001336D02*
X005789Y001336D01*
X005846Y001279D01*
X005846Y001165D01*
X005789Y001109D01*
X005619Y001109D01*
X005619Y001052D02*
X005619Y001336D01*
X005619Y001052D02*
X005676Y000995D01*
X005733Y000995D01*
X003882Y001109D02*
X003825Y001109D01*
X003825Y001165D01*
X003882Y001165D01*
X003882Y001109D01*
X003698Y001165D02*
X003641Y001109D01*
X003471Y001109D01*
X003329Y001165D02*
X003273Y001109D01*
X003159Y001109D01*
X003102Y001165D01*
X003102Y001279D01*
X003159Y001336D01*
X003273Y001336D01*
X003329Y001279D01*
X003329Y001165D01*
X003641Y001336D02*
X003698Y001279D01*
X003698Y001165D01*
X003641Y001336D02*
X003471Y001336D01*
X002961Y001336D02*
X002961Y001109D01*
X002847Y001109D02*
X002847Y001279D01*
X002791Y001336D01*
X002734Y001279D01*
X002734Y001109D01*
X002593Y001109D02*
X002366Y001449D01*
X002224Y001449D02*
X002224Y001109D01*
X002224Y001222D02*
X002054Y001336D01*
X001861Y001336D02*
X001747Y001336D01*
X001690Y001279D01*
X001690Y001109D01*
X001861Y001109D01*
X001917Y001165D01*
X001861Y001222D01*
X001690Y001222D01*
X001549Y001109D02*
X001549Y001336D01*
X001379Y001336D01*
X001322Y001279D01*
X001322Y001109D01*
X001124Y001109D02*
X001124Y001392D01*
X001067Y001449D01*
X000935Y001449D02*
X000878Y001449D01*
X000878Y001109D01*
X000822Y001109D02*
X000935Y001109D01*
X000690Y001165D02*
X000633Y001109D01*
X000519Y001109D01*
X000463Y001165D01*
X000463Y001279D01*
X000519Y001336D01*
X000633Y001336D01*
X000690Y001279D01*
X000690Y001165D01*
X001067Y001279D02*
X001181Y001279D01*
X002054Y001109D02*
X002224Y001222D01*
X002847Y001279D02*
X002904Y001336D01*
X002961Y001336D01*
D13*
X009351Y001676D02*
X009351Y001770D01*
X009351Y001723D02*
X009631Y001723D01*
X009631Y001676D02*
X009631Y001770D01*
X009585Y001860D02*
X009398Y001860D01*
X009351Y001907D01*
X009351Y002000D01*
X009398Y002047D01*
X009585Y002047D01*
X009631Y002000D01*
X009631Y001907D01*
X009585Y001860D01*
X009585Y002137D02*
X009398Y002137D01*
X009585Y002323D01*
X009398Y002323D01*
X009351Y002277D01*
X009351Y002183D01*
X009398Y002137D01*
X009585Y002137D02*
X009631Y002183D01*
X009631Y002277D01*
X009585Y002323D01*
X010151Y002323D02*
X010151Y002137D01*
X010338Y002323D01*
X010385Y002323D01*
X010431Y002277D01*
X010431Y002183D01*
X010385Y002137D01*
X010385Y002047D02*
X010198Y002047D01*
X010151Y002000D01*
X010151Y001907D01*
X010198Y001860D01*
X010385Y001860D01*
X010431Y001907D01*
X010431Y002000D01*
X010385Y002047D01*
X010431Y001770D02*
X010431Y001676D01*
X010431Y001723D02*
X010151Y001723D01*
X010151Y001676D02*
X010151Y001770D01*
X010951Y001770D02*
X010951Y001676D01*
X010951Y001723D02*
X011231Y001723D01*
X011231Y001676D02*
X011231Y001770D01*
X011185Y001860D02*
X010998Y001860D01*
X010951Y001907D01*
X010951Y002000D01*
X010998Y002047D01*
X011185Y002047D01*
X011231Y002000D01*
X011231Y001907D01*
X011185Y001860D01*
X011751Y001907D02*
X011798Y001860D01*
X011985Y001860D01*
X012031Y001907D01*
X012031Y002000D01*
X011985Y002047D01*
X011798Y002047D01*
X011751Y002000D01*
X011751Y001907D01*
X011751Y001770D02*
X011751Y001676D01*
X011751Y001723D02*
X012031Y001723D01*
X012031Y001676D02*
X012031Y001770D01*
X012501Y001770D02*
X012501Y001676D01*
X012501Y001723D02*
X012781Y001723D01*
X012781Y001676D02*
X012781Y001770D01*
X012735Y001860D02*
X012548Y001860D01*
X012501Y001907D01*
X012501Y002000D01*
X012548Y002047D01*
X012735Y002047D01*
X012781Y002000D01*
X012781Y001907D01*
X012735Y001860D01*
X013301Y001907D02*
X013348Y001860D01*
X013535Y001860D01*
X013581Y001907D01*
X013581Y002000D01*
X013535Y002047D01*
X013348Y002047D01*
X013301Y002000D01*
X013301Y001907D01*
X013301Y001770D02*
X013301Y001676D01*
X013301Y001723D02*
X013581Y001723D01*
X013581Y001676D02*
X013581Y001770D01*
X014101Y001770D02*
X014194Y001676D01*
X014381Y001676D01*
X014194Y001863D02*
X014101Y001770D01*
X014194Y001863D02*
X014381Y001863D01*
X014335Y001952D02*
X014148Y001952D01*
X014101Y001999D01*
X014101Y002092D01*
X014148Y002139D01*
X014148Y002229D02*
X014101Y002275D01*
X014101Y002369D01*
X014148Y002415D01*
X014335Y002415D02*
X014381Y002369D01*
X014381Y002275D01*
X014335Y002229D01*
X014148Y002229D01*
X014335Y002139D02*
X014381Y002092D01*
X014381Y001999D01*
X014335Y001952D01*
X013581Y002230D02*
X013301Y002230D01*
X013301Y002137D02*
X013301Y002323D01*
X013441Y002413D02*
X013441Y002600D01*
X013301Y002553D02*
X013581Y002553D01*
X013441Y002413D01*
X013581Y002230D02*
X013488Y002137D01*
X012781Y002230D02*
X012688Y002137D01*
X012781Y002230D02*
X012501Y002230D01*
X012501Y002137D02*
X012501Y002323D01*
X012501Y002413D02*
X012688Y002600D01*
X012735Y002600D01*
X012781Y002553D01*
X012781Y002459D01*
X012735Y002413D01*
X012501Y002413D02*
X012501Y002600D01*
X012031Y002553D02*
X012031Y002459D01*
X011985Y002413D01*
X011798Y002413D02*
X011751Y002459D01*
X011751Y002553D01*
X011798Y002600D01*
X011844Y002600D01*
X011891Y002553D01*
X011891Y002506D01*
X011891Y002553D02*
X011938Y002600D01*
X011985Y002600D01*
X012031Y002553D01*
X011751Y002323D02*
X011751Y002137D01*
X011751Y002230D02*
X012031Y002230D01*
X011938Y002137D01*
X011231Y002230D02*
X010951Y002230D01*
X010951Y002137D02*
X010951Y002323D01*
X010998Y002413D02*
X010951Y002459D01*
X010951Y002553D01*
X010998Y002600D01*
X011091Y002600D01*
X011138Y002553D01*
X011138Y002506D01*
X011091Y002413D01*
X011231Y002413D01*
X011231Y002600D01*
X011231Y002230D02*
X011138Y002137D01*
X012501Y003810D02*
X012501Y003904D01*
X012501Y003857D02*
X012781Y003857D01*
X012781Y003810D02*
X012781Y003904D01*
X012735Y003994D02*
X012548Y003994D01*
X012501Y004041D01*
X012501Y004135D01*
X012548Y004181D01*
X012735Y004181D01*
X012781Y004135D01*
X012781Y004041D01*
X012735Y003994D01*
X012688Y004271D02*
X012781Y004364D01*
X012501Y004364D01*
X012501Y004271D02*
X012501Y004458D01*
X012548Y004547D02*
X012501Y004594D01*
X012501Y004687D01*
X012548Y004734D01*
X012594Y004734D01*
X012641Y004687D01*
X012641Y004547D01*
X012548Y004547D01*
X012641Y004547D02*
X012735Y004640D01*
X012781Y004734D01*
X012781Y005010D02*
X012501Y004823D01*
X012031Y004823D02*
X011798Y004823D01*
X011751Y004870D01*
X011751Y004963D01*
X011798Y005010D01*
X012031Y005010D01*
X012031Y005099D02*
X012031Y005240D01*
X011985Y005286D01*
X011891Y005286D01*
X011844Y005240D01*
X011844Y005099D01*
X011751Y005099D02*
X012031Y005099D01*
X011844Y005193D02*
X011751Y005286D01*
X011751Y005376D02*
X012031Y005562D01*
X012031Y005652D02*
X012031Y005792D01*
X011985Y005839D01*
X011798Y005839D01*
X011751Y005792D01*
X011751Y005652D01*
X012031Y005652D01*
X012031Y005376D02*
X011751Y005562D01*
X011231Y005562D02*
X010951Y005376D01*
X010951Y005562D02*
X011231Y005376D01*
X011231Y005286D02*
X011231Y005099D01*
X011231Y005010D02*
X010998Y005010D01*
X010951Y004963D01*
X010951Y004870D01*
X010998Y004823D01*
X011231Y004823D01*
X011231Y005193D02*
X010951Y005193D01*
X010431Y005376D02*
X010151Y005562D01*
X010431Y005562D01*
X010385Y005652D02*
X010198Y005652D01*
X010151Y005699D01*
X010151Y005792D01*
X010198Y005839D01*
X010385Y005839D02*
X010431Y005792D01*
X010431Y005699D01*
X010385Y005652D01*
X010951Y005652D02*
X010951Y005792D01*
X010998Y005839D01*
X011185Y005839D01*
X011231Y005792D01*
X011231Y005652D01*
X010951Y005652D01*
X010431Y005376D02*
X010151Y005376D01*
X009631Y005376D02*
X009351Y005562D01*
X009631Y005562D01*
X009631Y005652D02*
X009351Y005652D01*
X009351Y005792D01*
X009398Y005839D01*
X009585Y005839D01*
X009631Y005792D01*
X009631Y005652D01*
X009631Y005376D02*
X009351Y005376D01*
X009398Y005286D02*
X009491Y005286D01*
X009491Y005193D01*
X009398Y005286D02*
X009351Y005240D01*
X009351Y005146D01*
X009398Y005099D01*
X009585Y005099D01*
X009631Y005146D01*
X009631Y005240D01*
X009585Y005286D01*
X012501Y005286D02*
X012594Y005193D01*
X012594Y005240D02*
X012594Y005099D01*
X012501Y005099D02*
X012781Y005099D01*
X012781Y005240D01*
X012735Y005286D01*
X012641Y005286D01*
X012594Y005240D01*
X012548Y005376D02*
X012501Y005422D01*
X012501Y005516D01*
X012548Y005562D01*
X012594Y005562D01*
X012641Y005516D01*
X012641Y005422D01*
X012688Y005376D01*
X012735Y005376D01*
X012781Y005422D01*
X012781Y005516D01*
X012735Y005562D01*
X012781Y005652D02*
X012781Y005839D01*
X012781Y005745D02*
X012501Y005745D01*
X013301Y005792D02*
X013301Y005652D01*
X013581Y005652D01*
X013581Y005792D01*
X013535Y005839D01*
X013348Y005839D01*
X013301Y005792D01*
X013441Y005562D02*
X013394Y005516D01*
X013394Y005376D01*
X013301Y005376D02*
X013581Y005376D01*
X013581Y005516D01*
X013535Y005562D01*
X013441Y005562D01*
X013254Y005286D02*
X013254Y005099D01*
X013301Y005010D02*
X013581Y005010D01*
X013441Y005010D02*
X013441Y004823D01*
X013348Y004734D02*
X013301Y004687D01*
X013301Y004594D01*
X013348Y004547D01*
X013535Y004547D01*
X013581Y004594D01*
X013581Y004687D01*
X013535Y004734D01*
X013581Y004823D02*
X013301Y004823D01*
X014101Y005099D02*
X014288Y005099D01*
X014381Y005193D01*
X014288Y005286D01*
X014101Y005286D01*
X014101Y005376D02*
X014381Y005376D01*
X014101Y005562D01*
X014381Y005562D01*
X014381Y005652D02*
X014381Y005839D01*
X014381Y005745D02*
X014101Y005745D01*
X014241Y005286D02*
X014241Y005099D01*
D14*
X003312Y005707D02*
X003122Y005687D01*
X003101Y005623D01*
X003070Y005564D01*
X003191Y005415D01*
X003090Y005313D01*
X002941Y005434D01*
X002881Y005404D01*
X002817Y005383D01*
X002798Y005193D01*
X002654Y005193D01*
X002635Y005383D01*
X002571Y005404D01*
X002511Y005434D01*
X002362Y005313D01*
X002261Y005415D01*
X002382Y005564D01*
X002351Y005623D01*
X002556Y005708D01*
X002577Y005670D01*
X002606Y005638D01*
X002642Y005614D01*
X002683Y005599D01*
X002726Y005594D01*
X002770Y005599D01*
X002811Y005615D01*
X002848Y005640D01*
X002877Y005673D01*
X002898Y005712D01*
X002909Y005755D01*
X002909Y005799D01*
X002899Y005842D01*
X002879Y005881D01*
X002851Y005915D01*
X002815Y005940D01*
X002774Y005957D01*
X002730Y005963D01*
X002686Y005959D01*
X002644Y005944D01*
X002356Y005944D01*
X002351Y005934D02*
X002556Y005849D01*
X002577Y005888D01*
X002607Y005920D01*
X002644Y005944D01*
X002576Y005886D02*
X002466Y005886D01*
X002351Y005934D02*
X002382Y005994D01*
X002261Y006142D01*
X002362Y006244D01*
X002511Y006123D01*
X002571Y006154D01*
X002635Y006174D01*
X002654Y006365D01*
X002798Y006365D01*
X002817Y006174D01*
X002881Y006154D01*
X002941Y006123D01*
X003090Y006244D01*
X003191Y006142D01*
X003070Y005994D01*
X003101Y005934D01*
X003122Y005870D01*
X003312Y005851D01*
X003312Y005707D01*
X003312Y005714D02*
X002898Y005714D01*
X002909Y005771D02*
X003312Y005771D01*
X003312Y005829D02*
X002902Y005829D01*
X002875Y005886D02*
X003116Y005886D01*
X003096Y005944D02*
X002807Y005944D01*
X003076Y006001D02*
X002376Y006001D01*
X002329Y006059D02*
X003123Y006059D01*
X003170Y006116D02*
X002282Y006116D01*
X002292Y006174D02*
X002448Y006174D01*
X002378Y006232D02*
X002350Y006232D01*
X002634Y006174D02*
X002818Y006174D01*
X002812Y006232D02*
X002641Y006232D01*
X002646Y006289D02*
X002806Y006289D01*
X002800Y006347D02*
X002652Y006347D01*
X003004Y006174D02*
X003160Y006174D01*
X003102Y006232D02*
X003074Y006232D01*
X003112Y005656D02*
X002862Y005656D01*
X002762Y005598D02*
X003088Y005598D01*
X003089Y005541D02*
X002363Y005541D01*
X002364Y005598D02*
X002690Y005598D01*
X002590Y005656D02*
X002430Y005656D01*
X002316Y005483D02*
X003136Y005483D01*
X003183Y005426D02*
X002952Y005426D01*
X002924Y005426D02*
X002528Y005426D01*
X002500Y005426D02*
X002269Y005426D01*
X002308Y005368D02*
X002430Y005368D01*
X002636Y005368D02*
X002816Y005368D01*
X002810Y005311D02*
X002642Y005311D01*
X002648Y005253D02*
X002804Y005253D01*
X002798Y005196D02*
X002654Y005196D01*
X003022Y005368D02*
X003144Y005368D01*
M02*
