G75*
%MOIN*%
%OFA0B0*%
%FSLAX24Y24*%
%IPPOS*%
%LPD*%
%AMOC8*
5,1,8,0,0,1.08239X$1,22.5*
%
%ADD10C,0.0080*%
%ADD11R,0.0740X0.0740*%
%ADD12C,0.0740*%
%ADD13R,0.0217X0.0472*%
%ADD14R,0.0433X0.0394*%
%ADD15R,0.0394X0.0433*%
%ADD16C,0.0160*%
%ADD17C,0.0240*%
%ADD18C,0.0100*%
D10*
X000161Y000753D02*
X000161Y006658D01*
X016769Y006658D01*
X016769Y000753D01*
X000161Y000753D01*
D11*
X001487Y002154D03*
D12*
X001487Y003154D03*
X001487Y004154D03*
X001487Y005154D03*
X006076Y005829D03*
X007076Y005829D03*
X008076Y005829D03*
X008087Y001550D03*
X007087Y001550D03*
D13*
X013447Y003154D03*
X014195Y003154D03*
X014195Y004178D03*
X013821Y004178D03*
X013447Y004178D03*
D14*
X013436Y005187D03*
X014106Y005187D03*
X014145Y002238D03*
X013475Y002238D03*
D15*
X012511Y002229D03*
X011841Y002229D03*
X010911Y002229D03*
X010241Y002229D03*
X010202Y003763D03*
X010872Y003763D03*
X011791Y003779D03*
X012461Y003779D03*
X012461Y005179D03*
X011791Y005179D03*
X010876Y005186D03*
X010206Y005186D03*
D16*
X010226Y005167D01*
X010226Y004779D01*
X010326Y004679D01*
X010626Y004679D01*
X010226Y004779D02*
X010226Y004529D01*
X010872Y003883D01*
X010872Y003763D01*
X010387Y003279D01*
X010376Y003279D01*
X010241Y003144D01*
X009891Y003144D01*
X009876Y003129D01*
X010241Y003144D02*
X010241Y002229D01*
X012926Y003079D02*
X012926Y004613D01*
X012461Y005179D01*
X012461Y005063D01*
X012126Y004729D01*
X012561Y005079D02*
X012461Y005179D01*
X012926Y004629D02*
X012926Y004613D01*
X012926Y004629D01*
X014106Y005187D02*
X014195Y005098D01*
X014195Y004178D01*
X014195Y003748D01*
X014126Y003679D01*
X014195Y003154D02*
X014195Y003148D01*
X014126Y003079D01*
X013876Y003079D01*
X014195Y003154D02*
X014195Y002289D01*
X014145Y002238D01*
X014145Y002160D01*
X014226Y002079D01*
X014226Y001779D01*
X011791Y003779D02*
X011691Y003679D01*
X011326Y003679D01*
X007176Y003679D02*
X007087Y003590D01*
X007087Y001550D01*
D17*
X005326Y002529D03*
X002776Y002579D03*
X005326Y004229D03*
X007176Y003679D03*
X009876Y003129D03*
X011326Y003679D03*
X012526Y004329D03*
X013276Y004629D03*
X012126Y004729D03*
X011276Y005179D03*
X010626Y004679D03*
X012926Y005679D03*
X014126Y003679D03*
X013876Y003079D03*
X012926Y003079D03*
X011376Y002179D03*
X010676Y001729D03*
X009526Y001879D03*
X014226Y001779D03*
X002376Y004329D03*
D18*
X002276Y004429D01*
X002276Y005029D01*
X002176Y005129D01*
X001512Y005129D01*
X001487Y005154D01*
X001044Y004994D02*
X000351Y004994D01*
X000351Y005093D02*
X001017Y005093D01*
X001017Y005061D02*
X001088Y004888D01*
X001220Y004756D01*
X001393Y004684D01*
X001580Y004684D01*
X001753Y004756D01*
X001885Y004888D01*
X001923Y004979D01*
X002114Y004979D01*
X002126Y004967D01*
X002126Y004367D01*
X002156Y004337D01*
X002156Y004238D01*
X002285Y004109D01*
X002467Y004109D01*
X002596Y004238D01*
X002596Y004420D01*
X002467Y004549D01*
X002426Y004549D01*
X002426Y005091D01*
X002326Y005191D01*
X002238Y005279D01*
X001944Y005279D01*
X001885Y005421D01*
X001753Y005553D01*
X001580Y005624D01*
X001393Y005624D01*
X001220Y005553D01*
X001088Y005421D01*
X001017Y005248D01*
X001017Y005061D01*
X001017Y005191D02*
X000351Y005191D01*
X000351Y005290D02*
X001034Y005290D01*
X001075Y005388D02*
X000351Y005388D01*
X000351Y005487D02*
X001154Y005487D01*
X001299Y005585D02*
X000351Y005585D01*
X000351Y005684D02*
X005627Y005684D01*
X005606Y005735D02*
X005678Y005563D01*
X005810Y005430D01*
X005983Y005359D01*
X006170Y005359D01*
X006342Y005430D01*
X006474Y005563D01*
X006546Y005735D01*
X006546Y005922D01*
X006474Y006095D01*
X006342Y006227D01*
X006170Y006299D01*
X005983Y006299D01*
X005810Y006227D01*
X005678Y006095D01*
X005606Y005922D01*
X005606Y005735D01*
X005606Y005782D02*
X000351Y005782D01*
X000351Y005881D02*
X005606Y005881D01*
X005630Y005979D02*
X000351Y005979D01*
X000351Y006078D02*
X005670Y006078D01*
X005759Y006176D02*
X000351Y006176D01*
X000351Y006275D02*
X005925Y006275D01*
X006227Y006275D02*
X006925Y006275D01*
X006983Y006299D02*
X006810Y006227D01*
X006678Y006095D01*
X006606Y005922D01*
X006606Y005735D01*
X006678Y005563D01*
X006810Y005430D01*
X006983Y005359D01*
X007170Y005359D01*
X007342Y005430D01*
X007474Y005563D01*
X007546Y005735D01*
X007546Y005922D01*
X007474Y006095D01*
X007342Y006227D01*
X007170Y006299D01*
X006983Y006299D01*
X007227Y006275D02*
X007806Y006275D01*
X007803Y006273D02*
X007737Y006225D01*
X007679Y006167D01*
X007631Y006101D01*
X007594Y006028D01*
X007569Y005951D01*
X007557Y005879D01*
X008026Y005879D01*
X008026Y006347D01*
X007954Y006336D01*
X007876Y006311D01*
X007803Y006273D01*
X007688Y006176D02*
X007393Y006176D01*
X007482Y006078D02*
X007619Y006078D01*
X007578Y005979D02*
X007522Y005979D01*
X007546Y005881D02*
X007558Y005881D01*
X007546Y005782D02*
X008026Y005782D01*
X008026Y005779D02*
X007557Y005779D01*
X007569Y005707D01*
X007594Y005629D01*
X007631Y005556D01*
X007679Y005490D01*
X007737Y005432D01*
X007803Y005384D01*
X007876Y005347D01*
X007954Y005322D01*
X008026Y005310D01*
X008026Y005779D01*
X008026Y005879D01*
X008126Y005879D01*
X008126Y006347D01*
X008198Y006336D01*
X008276Y006311D01*
X008349Y006273D01*
X008415Y006225D01*
X008473Y006167D01*
X008521Y006101D01*
X008558Y006028D01*
X008583Y005951D01*
X008595Y005879D01*
X008126Y005879D01*
X008126Y005779D01*
X008595Y005779D01*
X008583Y005707D01*
X008558Y005629D01*
X008521Y005556D01*
X008473Y005490D01*
X008415Y005432D01*
X008349Y005384D01*
X008276Y005347D01*
X008198Y005322D01*
X008126Y005310D01*
X008126Y005779D01*
X008026Y005779D01*
X008026Y005684D02*
X008126Y005684D01*
X008126Y005585D02*
X008026Y005585D01*
X008026Y005487D02*
X008126Y005487D01*
X008126Y005388D02*
X008026Y005388D01*
X007798Y005388D02*
X007241Y005388D01*
X007399Y005487D02*
X007683Y005487D01*
X007616Y005585D02*
X007484Y005585D01*
X007525Y005684D02*
X007576Y005684D01*
X008026Y005881D02*
X008126Y005881D01*
X008126Y005979D02*
X008026Y005979D01*
X008026Y006078D02*
X008126Y006078D01*
X008126Y006176D02*
X008026Y006176D01*
X008026Y006275D02*
X008126Y006275D01*
X008346Y006275D02*
X014609Y006275D01*
X014609Y006176D02*
X008464Y006176D01*
X008533Y006078D02*
X014609Y006078D01*
X014609Y005979D02*
X008574Y005979D01*
X008594Y005881D02*
X012817Y005881D01*
X012835Y005899D02*
X012706Y005770D01*
X012706Y005729D01*
X011964Y005729D01*
X011876Y005641D01*
X011730Y005495D01*
X011553Y005495D01*
X011495Y005437D01*
X011495Y005271D01*
X011367Y005399D01*
X011185Y005399D01*
X011172Y005386D01*
X011172Y005444D01*
X011114Y005503D01*
X010637Y005503D01*
X010579Y005444D01*
X010579Y004928D01*
X010608Y004899D01*
X010535Y004899D01*
X010495Y004859D01*
X010406Y004859D01*
X010406Y004870D01*
X010445Y004870D01*
X010503Y004928D01*
X010503Y005444D01*
X010445Y005503D01*
X009968Y005503D01*
X009910Y005444D01*
X009910Y004928D01*
X009968Y004870D01*
X010046Y004870D01*
X010046Y004454D01*
X010151Y004349D01*
X010421Y004080D01*
X009964Y004080D01*
X009906Y004021D01*
X009906Y003829D01*
X009564Y003829D01*
X009476Y003741D01*
X009476Y003741D01*
X009464Y003729D01*
X009464Y003729D01*
X009376Y003641D01*
X009376Y002040D01*
X009306Y001970D01*
X009306Y001788D01*
X009435Y001659D01*
X009617Y001659D01*
X009746Y001788D01*
X009746Y001970D01*
X009676Y002040D01*
X009676Y003018D01*
X009785Y002909D01*
X009967Y002909D01*
X010023Y002964D01*
X010061Y002964D01*
X010061Y002545D01*
X010003Y002545D01*
X009945Y002487D01*
X009945Y001971D01*
X010003Y001912D01*
X010480Y001912D01*
X010538Y001971D01*
X010538Y002487D01*
X010480Y002545D01*
X010421Y002545D01*
X010421Y003070D01*
X010451Y003099D01*
X010462Y003099D01*
X010810Y003446D01*
X011110Y003446D01*
X011169Y003505D01*
X011169Y003525D01*
X011235Y003459D01*
X011417Y003459D01*
X011457Y003499D01*
X011517Y003499D01*
X011553Y003462D01*
X012030Y003462D01*
X012088Y003521D01*
X012088Y004037D01*
X012030Y004095D01*
X011553Y004095D01*
X011495Y004037D01*
X011495Y003859D01*
X011457Y003859D01*
X011417Y003899D01*
X011235Y003899D01*
X011169Y003832D01*
X011169Y004021D01*
X011110Y004080D01*
X010930Y004080D01*
X010551Y004459D01*
X010717Y004459D01*
X010846Y004588D01*
X010846Y004770D01*
X010746Y004870D01*
X011114Y004870D01*
X011172Y004928D01*
X011172Y004971D01*
X011185Y004959D01*
X011367Y004959D01*
X011495Y005086D01*
X011495Y004921D01*
X011553Y004862D01*
X011948Y004862D01*
X011906Y004820D01*
X011906Y004638D01*
X012035Y004509D01*
X012217Y004509D01*
X012346Y004638D01*
X012346Y004694D01*
X012500Y004848D01*
X012746Y004549D01*
X012746Y004048D01*
X012699Y004095D01*
X012611Y004095D01*
X012611Y004109D01*
X012617Y004109D01*
X012746Y004238D01*
X012746Y004420D01*
X012617Y004549D01*
X012435Y004549D01*
X012306Y004420D01*
X012306Y004238D01*
X012311Y004233D01*
X012311Y004095D01*
X012222Y004095D01*
X012164Y004037D01*
X012164Y003521D01*
X012222Y003462D01*
X012699Y003462D01*
X012746Y003509D01*
X012746Y003210D01*
X012706Y003170D01*
X012706Y002988D01*
X012835Y002859D01*
X013017Y002859D01*
X013146Y002988D01*
X013146Y003170D01*
X013106Y003210D01*
X013106Y004488D01*
X013185Y004409D01*
X013239Y004409D01*
X013239Y003900D01*
X013297Y003842D01*
X013597Y003842D01*
X013599Y003844D01*
X013621Y003822D01*
X013655Y003802D01*
X013693Y003792D01*
X013817Y003792D01*
X013817Y004174D01*
X013825Y004174D01*
X013825Y003792D01*
X013928Y003792D01*
X013906Y003770D01*
X013906Y003588D01*
X014024Y003469D01*
X013987Y003432D01*
X013987Y003279D01*
X013967Y003299D01*
X013785Y003299D01*
X013656Y003170D01*
X013656Y002988D01*
X013785Y002859D01*
X013967Y002859D01*
X013987Y002878D01*
X013987Y002877D01*
X014015Y002848D01*
X014015Y002535D01*
X013887Y002535D01*
X013834Y002483D01*
X013832Y002493D01*
X013812Y002527D01*
X013784Y002555D01*
X013750Y002575D01*
X013712Y002585D01*
X013524Y002585D01*
X013524Y002287D01*
X013427Y002287D01*
X013427Y002585D01*
X013239Y002585D01*
X013201Y002575D01*
X013167Y002555D01*
X013139Y002527D01*
X013119Y002493D01*
X013109Y002455D01*
X013109Y002287D01*
X013427Y002287D01*
X013427Y002190D01*
X013109Y002190D01*
X013109Y002022D01*
X013119Y001983D01*
X013139Y001949D01*
X013167Y001921D01*
X013201Y001902D01*
X013239Y001891D01*
X013427Y001891D01*
X013427Y002190D01*
X013524Y002190D01*
X013524Y001891D01*
X013712Y001891D01*
X013750Y001902D01*
X013784Y001921D01*
X013812Y001949D01*
X013832Y001983D01*
X013834Y001994D01*
X013887Y001941D01*
X014046Y001941D01*
X013803Y001941D01*
X014006Y001870D02*
X014006Y001688D01*
X014135Y001559D01*
X014317Y001559D01*
X014446Y001688D01*
X014446Y001870D01*
X014406Y001910D01*
X014406Y001945D01*
X014461Y002000D01*
X014461Y002476D01*
X014402Y002535D01*
X014375Y002535D01*
X014375Y002848D01*
X014403Y002877D01*
X014403Y003432D01*
X014345Y003491D01*
X014249Y003491D01*
X014346Y003588D01*
X014346Y003644D01*
X014375Y003673D01*
X014375Y003872D01*
X014403Y003900D01*
X014403Y004456D01*
X014375Y004484D01*
X014375Y004902D01*
X014422Y004949D01*
X014422Y005426D01*
X014364Y005484D01*
X013848Y005484D01*
X013795Y005432D01*
X013793Y005442D01*
X013773Y005476D01*
X013745Y005504D01*
X013711Y005524D01*
X013673Y005534D01*
X013485Y005534D01*
X013485Y005236D01*
X013388Y005236D01*
X013388Y005534D01*
X013200Y005534D01*
X013162Y005524D01*
X013128Y005504D01*
X013100Y005476D01*
X013080Y005442D01*
X013070Y005404D01*
X013070Y005236D01*
X013388Y005236D01*
X013388Y005139D01*
X013485Y005139D01*
X013485Y004841D01*
X013673Y004841D01*
X013711Y004851D01*
X013745Y004871D01*
X013773Y004898D01*
X013793Y004933D01*
X013795Y004943D01*
X013848Y004891D01*
X014015Y004891D01*
X014015Y004538D01*
X013987Y004554D01*
X013949Y004564D01*
X013825Y004564D01*
X013825Y004182D01*
X013817Y004182D01*
X013817Y004564D01*
X013693Y004564D01*
X013655Y004554D01*
X013621Y004534D01*
X013602Y004515D01*
X013538Y004579D01*
X013496Y004621D01*
X013496Y004720D01*
X013375Y004841D01*
X013388Y004841D01*
X013388Y005139D01*
X013070Y005139D01*
X013070Y004971D01*
X013080Y004933D01*
X013100Y004898D01*
X013128Y004871D01*
X013162Y004851D01*
X013182Y004845D01*
X013073Y004737D01*
X013001Y004809D01*
X012998Y004809D01*
X012758Y005101D01*
X012758Y005429D01*
X012888Y005429D01*
X012918Y005459D01*
X013017Y005459D01*
X013146Y005588D01*
X013146Y005770D01*
X013017Y005899D01*
X012835Y005899D01*
X012718Y005782D02*
X008126Y005782D01*
X008576Y005684D02*
X011919Y005684D01*
X011820Y005585D02*
X008536Y005585D01*
X008469Y005487D02*
X009952Y005487D01*
X009910Y005388D02*
X008354Y005388D01*
X006911Y005388D02*
X006241Y005388D01*
X006399Y005487D02*
X006753Y005487D01*
X006668Y005585D02*
X006484Y005585D01*
X006525Y005684D02*
X006627Y005684D01*
X006606Y005782D02*
X006546Y005782D01*
X006546Y005881D02*
X006606Y005881D01*
X006630Y005979D02*
X006522Y005979D01*
X006482Y006078D02*
X006670Y006078D01*
X006759Y006176D02*
X006393Y006176D01*
X005668Y005585D02*
X001674Y005585D01*
X001819Y005487D02*
X005753Y005487D01*
X005911Y005388D02*
X001898Y005388D01*
X001939Y005290D02*
X009910Y005290D01*
X009910Y005191D02*
X002326Y005191D01*
X002424Y005093D02*
X009910Y005093D01*
X009910Y004994D02*
X002426Y004994D01*
X002426Y004896D02*
X009942Y004896D01*
X010046Y004797D02*
X002426Y004797D01*
X002426Y004699D02*
X010046Y004699D01*
X010046Y004600D02*
X002426Y004600D01*
X002514Y004502D02*
X010046Y004502D01*
X010097Y004403D02*
X005463Y004403D01*
X005417Y004449D02*
X005235Y004449D01*
X005106Y004320D01*
X005106Y004138D01*
X005176Y004068D01*
X005176Y002690D01*
X005106Y002620D01*
X005106Y002438D01*
X005235Y002309D01*
X005417Y002309D01*
X005546Y002438D01*
X005546Y002620D01*
X005476Y002690D01*
X005476Y004068D01*
X005546Y004138D01*
X005546Y004320D01*
X005417Y004449D01*
X005546Y004305D02*
X010195Y004305D01*
X010294Y004206D02*
X005546Y004206D01*
X005516Y004108D02*
X010392Y004108D01*
X010705Y004305D02*
X012306Y004305D01*
X012311Y004206D02*
X010803Y004206D01*
X010902Y004108D02*
X012311Y004108D01*
X012164Y004009D02*
X012088Y004009D01*
X012088Y003911D02*
X012164Y003911D01*
X012164Y003812D02*
X012088Y003812D01*
X012088Y003714D02*
X012164Y003714D01*
X012164Y003615D02*
X012088Y003615D01*
X012084Y003517D02*
X012168Y003517D01*
X012461Y003779D02*
X012461Y004263D01*
X012526Y004329D01*
X012746Y004305D02*
X012746Y004305D01*
X012746Y004206D02*
X012715Y004206D01*
X012746Y004108D02*
X012611Y004108D01*
X013106Y004108D02*
X013239Y004108D01*
X013239Y004206D02*
X013106Y004206D01*
X013106Y004305D02*
X013239Y004305D01*
X013447Y004178D02*
X013476Y004207D01*
X013476Y004429D01*
X013276Y004629D01*
X013496Y004699D02*
X014015Y004699D01*
X014015Y004797D02*
X013419Y004797D01*
X013388Y004896D02*
X013485Y004896D01*
X013485Y004994D02*
X013388Y004994D01*
X013388Y005093D02*
X013485Y005093D01*
X013388Y005191D02*
X012758Y005191D01*
X012765Y005093D02*
X013070Y005093D01*
X013070Y004994D02*
X012846Y004994D01*
X012927Y004896D02*
X013102Y004896D01*
X013133Y004797D02*
X013012Y004797D01*
X012623Y004699D02*
X012351Y004699D01*
X012449Y004797D02*
X012542Y004797D01*
X012704Y004600D02*
X012309Y004600D01*
X012388Y004502D02*
X010760Y004502D01*
X010846Y004600D02*
X011943Y004600D01*
X011906Y004699D02*
X010846Y004699D01*
X010819Y004797D02*
X011906Y004797D01*
X011520Y004896D02*
X011140Y004896D01*
X011403Y004994D02*
X011495Y004994D01*
X011276Y005179D02*
X011269Y005186D01*
X010876Y005186D01*
X010579Y005191D02*
X010503Y005191D01*
X010503Y005093D02*
X010579Y005093D01*
X010579Y004994D02*
X010503Y004994D01*
X010532Y004896D02*
X010471Y004896D01*
X010503Y005290D02*
X010579Y005290D01*
X010579Y005388D02*
X010503Y005388D01*
X010461Y005487D02*
X010621Y005487D01*
X011130Y005487D02*
X011545Y005487D01*
X011495Y005388D02*
X011378Y005388D01*
X011476Y005290D02*
X011495Y005290D01*
X011174Y005388D02*
X011172Y005388D01*
X011791Y005344D02*
X011791Y005179D01*
X011791Y005344D02*
X012026Y005579D01*
X012826Y005579D01*
X012926Y005679D01*
X013146Y005684D02*
X014609Y005684D01*
X014609Y005585D02*
X013144Y005585D01*
X013110Y005487D02*
X013045Y005487D01*
X013070Y005388D02*
X012758Y005388D01*
X012758Y005290D02*
X013070Y005290D01*
X013388Y005290D02*
X013485Y005290D01*
X013485Y005388D02*
X013388Y005388D01*
X013388Y005487D02*
X013485Y005487D01*
X013762Y005487D02*
X014609Y005487D01*
X014609Y005388D02*
X014422Y005388D01*
X014422Y005290D02*
X014609Y005290D01*
X014609Y005191D02*
X014422Y005191D01*
X014422Y005093D02*
X014609Y005093D01*
X014609Y004994D02*
X014422Y004994D01*
X014375Y004896D02*
X014609Y004896D01*
X014609Y004797D02*
X014375Y004797D01*
X014375Y004699D02*
X014609Y004699D01*
X014609Y004600D02*
X014375Y004600D01*
X014375Y004502D02*
X014609Y004502D01*
X014609Y004403D02*
X014403Y004403D01*
X014403Y004305D02*
X014609Y004305D01*
X014609Y004206D02*
X014403Y004206D01*
X014403Y004108D02*
X014609Y004108D01*
X014609Y004009D02*
X014403Y004009D01*
X014403Y003911D02*
X014609Y003911D01*
X014609Y003812D02*
X014375Y003812D01*
X014375Y003714D02*
X014609Y003714D01*
X014609Y003615D02*
X014346Y003615D01*
X014275Y003517D02*
X014609Y003517D01*
X014609Y003418D02*
X014403Y003418D01*
X014403Y003320D02*
X014609Y003320D01*
X014609Y003221D02*
X014403Y003221D01*
X014403Y003123D02*
X014609Y003123D01*
X014609Y003024D02*
X014403Y003024D01*
X014403Y002926D02*
X014609Y002926D01*
X014609Y002827D02*
X014375Y002827D01*
X014375Y002729D02*
X014609Y002729D01*
X014609Y002630D02*
X014375Y002630D01*
X014406Y002532D02*
X014609Y002532D01*
X014609Y002433D02*
X014461Y002433D01*
X014461Y002335D02*
X014609Y002335D01*
X014609Y002236D02*
X014461Y002236D01*
X014461Y002138D02*
X014609Y002138D01*
X014609Y002039D02*
X014461Y002039D01*
X014406Y001941D02*
X014609Y001941D01*
X014609Y001842D02*
X014446Y001842D01*
X014446Y001744D02*
X014609Y001744D01*
X014609Y001645D02*
X014404Y001645D01*
X014609Y001547D02*
X010805Y001547D01*
X010767Y001509D02*
X010585Y001509D01*
X010456Y001638D01*
X010456Y001820D01*
X010585Y001949D01*
X010636Y001949D01*
X010614Y001971D01*
X010614Y002487D01*
X010672Y002545D01*
X011149Y002545D01*
X011208Y002487D01*
X011208Y002321D01*
X011285Y002399D01*
X011467Y002399D01*
X011537Y002329D01*
X011545Y002329D01*
X011545Y002487D01*
X011603Y002545D01*
X012080Y002545D01*
X012138Y002487D01*
X012138Y001971D01*
X012080Y001912D01*
X011603Y001912D01*
X011545Y001971D01*
X011545Y002029D01*
X011537Y002029D01*
X011467Y001959D01*
X011285Y001959D01*
X011208Y002036D01*
X011208Y001971D01*
X011149Y001912D01*
X011072Y001912D01*
X011038Y001879D01*
X010896Y001737D01*
X010896Y001638D01*
X010767Y001509D01*
X010547Y001547D02*
X008136Y001547D01*
X008136Y001502D02*
X008136Y001598D01*
X008606Y001598D01*
X008595Y001672D01*
X008569Y001750D01*
X008532Y001823D01*
X008484Y001889D01*
X008426Y001947D01*
X008360Y001995D01*
X008287Y002032D01*
X008209Y002057D01*
X008136Y002069D01*
X008136Y001598D01*
X008039Y001598D01*
X008039Y001502D01*
X007569Y001502D01*
X007580Y001428D01*
X007606Y001350D01*
X007513Y001350D01*
X007486Y001284D02*
X007557Y001457D01*
X007557Y001643D01*
X007486Y001816D01*
X007354Y001948D01*
X007267Y001984D01*
X007267Y003459D01*
X007396Y003588D01*
X007396Y003770D01*
X007267Y003899D01*
X007085Y003899D01*
X006956Y003770D01*
X006956Y003713D01*
X006907Y003665D01*
X006907Y001984D01*
X006821Y001948D01*
X006689Y001816D01*
X006617Y001643D01*
X006617Y001457D01*
X006689Y001284D01*
X006821Y001152D01*
X006994Y001080D01*
X007181Y001080D01*
X007354Y001152D01*
X007486Y001284D01*
X007453Y001251D02*
X007662Y001251D01*
X007643Y001277D02*
X007691Y001211D01*
X007749Y001153D01*
X007815Y001105D01*
X007888Y001068D01*
X007966Y001043D01*
X008039Y001031D01*
X008039Y001502D01*
X008136Y001502D01*
X008606Y001502D01*
X008595Y001428D01*
X008569Y001350D01*
X014609Y001350D01*
X014609Y001448D02*
X008598Y001448D01*
X008569Y001350D02*
X008532Y001277D01*
X008484Y001211D01*
X008426Y001153D01*
X008360Y001105D01*
X008287Y001068D01*
X008209Y001043D01*
X008136Y001031D01*
X008136Y001502D01*
X008136Y001448D02*
X008039Y001448D01*
X008039Y001350D02*
X008136Y001350D01*
X008136Y001251D02*
X008039Y001251D01*
X008039Y001153D02*
X008136Y001153D01*
X008136Y001054D02*
X008039Y001054D01*
X007930Y001054D02*
X000351Y001054D01*
X000351Y000956D02*
X014609Y000956D01*
X014609Y000943D02*
X014609Y006468D01*
X000351Y006468D01*
X000351Y000943D01*
X014609Y000943D01*
X014609Y001054D02*
X008244Y001054D01*
X008425Y001153D02*
X014609Y001153D01*
X014609Y001251D02*
X008513Y001251D01*
X008039Y001547D02*
X007557Y001547D01*
X007569Y001598D02*
X008039Y001598D01*
X008039Y002069D01*
X007966Y002057D01*
X007888Y002032D01*
X007815Y001995D01*
X007749Y001947D01*
X007691Y001889D01*
X007643Y001823D01*
X007606Y001750D01*
X007580Y001672D01*
X007569Y001598D01*
X007576Y001645D02*
X007557Y001645D01*
X007516Y001744D02*
X007604Y001744D01*
X007657Y001842D02*
X007460Y001842D01*
X007361Y001941D02*
X007743Y001941D01*
X007910Y002039D02*
X007267Y002039D01*
X007267Y002138D02*
X009376Y002138D01*
X009376Y002236D02*
X007267Y002236D01*
X007267Y002335D02*
X009376Y002335D01*
X009376Y002433D02*
X007267Y002433D01*
X007267Y002532D02*
X009376Y002532D01*
X009376Y002630D02*
X007267Y002630D01*
X007267Y002729D02*
X009376Y002729D01*
X009376Y002827D02*
X007267Y002827D01*
X007267Y002926D02*
X009376Y002926D01*
X009376Y003024D02*
X007267Y003024D01*
X007267Y003123D02*
X009376Y003123D01*
X009376Y003221D02*
X007267Y003221D01*
X007267Y003320D02*
X009376Y003320D01*
X009376Y003418D02*
X007267Y003418D01*
X007325Y003517D02*
X009376Y003517D01*
X009376Y003615D02*
X007396Y003615D01*
X007396Y003714D02*
X009449Y003714D01*
X009526Y003579D02*
X009626Y003679D01*
X010118Y003679D01*
X010202Y003763D01*
X009906Y003911D02*
X005476Y003911D01*
X005476Y004009D02*
X009906Y004009D01*
X009547Y003812D02*
X007354Y003812D01*
X006998Y003812D02*
X005476Y003812D01*
X005476Y003714D02*
X006956Y003714D01*
X006907Y003615D02*
X005476Y003615D01*
X005476Y003517D02*
X006907Y003517D01*
X006907Y003418D02*
X005476Y003418D01*
X005476Y003320D02*
X006907Y003320D01*
X006907Y003221D02*
X005476Y003221D01*
X005476Y003123D02*
X006907Y003123D01*
X006907Y003024D02*
X005476Y003024D01*
X005476Y002926D02*
X006907Y002926D01*
X006907Y002827D02*
X005476Y002827D01*
X005476Y002729D02*
X006907Y002729D01*
X006907Y002630D02*
X005536Y002630D01*
X005546Y002532D02*
X006907Y002532D01*
X006907Y002433D02*
X005542Y002433D01*
X005326Y002529D02*
X005326Y004229D01*
X005106Y004206D02*
X002565Y004206D01*
X002596Y004305D02*
X005106Y004305D01*
X005189Y004403D02*
X002596Y004403D01*
X002156Y004305D02*
X001933Y004305D01*
X001957Y004248D02*
X001885Y004421D01*
X001753Y004553D01*
X001580Y004624D01*
X001393Y004624D01*
X001220Y004553D01*
X001088Y004421D01*
X001017Y004248D01*
X001017Y004061D01*
X001088Y003888D01*
X001220Y003756D01*
X001393Y003684D01*
X001580Y003684D01*
X001696Y003732D01*
X001700Y003729D01*
X002564Y003729D01*
X002626Y003667D01*
X002626Y002740D01*
X002556Y002670D01*
X002556Y002488D01*
X002685Y002359D01*
X002867Y002359D01*
X002996Y002488D01*
X002996Y002670D01*
X002926Y002740D01*
X002926Y003791D01*
X002776Y003941D01*
X002688Y004029D01*
X001943Y004029D01*
X001957Y004061D01*
X001957Y004248D01*
X001957Y004206D02*
X002187Y004206D01*
X001957Y004108D02*
X005136Y004108D01*
X005176Y004009D02*
X002708Y004009D01*
X002806Y003911D02*
X005176Y003911D01*
X005176Y003812D02*
X002905Y003812D01*
X002926Y003714D02*
X005176Y003714D01*
X005176Y003615D02*
X002926Y003615D01*
X002926Y003517D02*
X005176Y003517D01*
X005176Y003418D02*
X002926Y003418D01*
X002926Y003320D02*
X005176Y003320D01*
X005176Y003221D02*
X002926Y003221D01*
X002926Y003123D02*
X005176Y003123D01*
X005176Y003024D02*
X002926Y003024D01*
X002926Y002926D02*
X005176Y002926D01*
X005176Y002827D02*
X002926Y002827D01*
X002937Y002729D02*
X005176Y002729D01*
X005116Y002630D02*
X002996Y002630D01*
X002996Y002532D02*
X005106Y002532D01*
X005110Y002433D02*
X002942Y002433D01*
X002776Y002579D02*
X002776Y003729D01*
X002626Y003879D01*
X001762Y003879D01*
X001487Y004154D01*
X001512Y004129D01*
X001038Y004009D02*
X000351Y004009D01*
X000351Y003911D02*
X001079Y003911D01*
X001164Y003812D02*
X000351Y003812D01*
X000351Y003714D02*
X001322Y003714D01*
X001371Y003615D02*
X000351Y003615D01*
X000351Y003517D02*
X001184Y003517D01*
X001220Y003553D02*
X001088Y003421D01*
X001017Y003248D01*
X001017Y003061D01*
X001088Y002888D01*
X001220Y002756D01*
X001393Y002684D01*
X001580Y002684D01*
X001753Y002756D01*
X001885Y002888D01*
X001957Y003061D01*
X001957Y003248D01*
X001885Y003421D01*
X001753Y003553D01*
X001580Y003624D01*
X001393Y003624D01*
X001220Y003553D01*
X001087Y003418D02*
X000351Y003418D01*
X000351Y003320D02*
X001046Y003320D01*
X001017Y003221D02*
X000351Y003221D01*
X000351Y003123D02*
X001017Y003123D01*
X001032Y003024D02*
X000351Y003024D01*
X000351Y002926D02*
X001073Y002926D01*
X001149Y002827D02*
X000351Y002827D01*
X000351Y002729D02*
X001286Y002729D01*
X001438Y002674D02*
X001097Y002674D01*
X001059Y002664D01*
X001025Y002644D01*
X000997Y002616D01*
X000977Y002582D01*
X000967Y002544D01*
X000967Y002203D01*
X001438Y002203D01*
X001438Y002674D01*
X001438Y002630D02*
X001535Y002630D01*
X001535Y002674D02*
X001535Y002203D01*
X001438Y002203D01*
X001438Y002106D01*
X000967Y002106D01*
X000967Y001765D01*
X000977Y001726D01*
X000997Y001692D01*
X001025Y001664D01*
X001059Y001645D01*
X001097Y001634D01*
X001438Y001634D01*
X001438Y002106D01*
X001535Y002106D01*
X001535Y001634D01*
X001876Y001634D01*
X001915Y001645D01*
X001949Y001664D01*
X001977Y001692D01*
X001996Y001726D01*
X002007Y001765D01*
X002007Y002106D01*
X001535Y002106D01*
X001535Y002203D01*
X002007Y002203D01*
X002007Y002544D01*
X001996Y002582D01*
X001977Y002616D01*
X001949Y002644D01*
X001915Y002664D01*
X001876Y002674D01*
X001535Y002674D01*
X001687Y002729D02*
X002615Y002729D01*
X002626Y002827D02*
X001824Y002827D01*
X001901Y002926D02*
X002626Y002926D01*
X002626Y003024D02*
X001942Y003024D01*
X001957Y003123D02*
X002626Y003123D01*
X002626Y003221D02*
X001957Y003221D01*
X001927Y003320D02*
X002626Y003320D01*
X002626Y003418D02*
X001886Y003418D01*
X001789Y003517D02*
X002626Y003517D01*
X002626Y003615D02*
X001602Y003615D01*
X001651Y003714D02*
X002579Y003714D01*
X001017Y004108D02*
X000351Y004108D01*
X000351Y004206D02*
X001017Y004206D01*
X001040Y004305D02*
X000351Y004305D01*
X000351Y004403D02*
X001081Y004403D01*
X001169Y004502D02*
X000351Y004502D01*
X000351Y004600D02*
X001335Y004600D01*
X001358Y004699D02*
X000351Y004699D01*
X000351Y004797D02*
X001179Y004797D01*
X001085Y004896D02*
X000351Y004896D01*
X001615Y004699D02*
X002126Y004699D01*
X002126Y004797D02*
X001794Y004797D01*
X001888Y004896D02*
X002126Y004896D01*
X002126Y004600D02*
X001638Y004600D01*
X001804Y004502D02*
X002126Y004502D01*
X002126Y004403D02*
X001892Y004403D01*
X001963Y002630D02*
X002556Y002630D01*
X002556Y002532D02*
X002007Y002532D01*
X002007Y002433D02*
X002610Y002433D01*
X002007Y002335D02*
X005209Y002335D01*
X005443Y002335D02*
X006907Y002335D01*
X006907Y002236D02*
X002007Y002236D01*
X001535Y002236D02*
X001438Y002236D01*
X001438Y002138D02*
X000351Y002138D01*
X000351Y002236D02*
X000967Y002236D01*
X000967Y002335D02*
X000351Y002335D01*
X000351Y002433D02*
X000967Y002433D01*
X000967Y002532D02*
X000351Y002532D01*
X000351Y002630D02*
X001010Y002630D01*
X001438Y002532D02*
X001535Y002532D01*
X001535Y002433D02*
X001438Y002433D01*
X001438Y002335D02*
X001535Y002335D01*
X001535Y002138D02*
X006907Y002138D01*
X006907Y002039D02*
X002007Y002039D01*
X002007Y001941D02*
X006814Y001941D01*
X006715Y001842D02*
X002007Y001842D01*
X002001Y001744D02*
X006659Y001744D01*
X006618Y001645D02*
X001916Y001645D01*
X001535Y001645D02*
X001438Y001645D01*
X001438Y001744D02*
X001535Y001744D01*
X001535Y001842D02*
X001438Y001842D01*
X001438Y001941D02*
X001535Y001941D01*
X001535Y002039D02*
X001438Y002039D01*
X000967Y002039D02*
X000351Y002039D01*
X000351Y001941D02*
X000967Y001941D01*
X000967Y001842D02*
X000351Y001842D01*
X000351Y001744D02*
X000972Y001744D01*
X001058Y001645D02*
X000351Y001645D01*
X000351Y001547D02*
X006617Y001547D01*
X006621Y001448D02*
X000351Y001448D01*
X000351Y001350D02*
X006662Y001350D01*
X006722Y001251D02*
X000351Y001251D01*
X000351Y001153D02*
X006820Y001153D01*
X007355Y001153D02*
X007750Y001153D01*
X007643Y001277D02*
X007606Y001350D01*
X007577Y001448D02*
X007554Y001448D01*
X008039Y001645D02*
X008136Y001645D01*
X008136Y001744D02*
X008039Y001744D01*
X008039Y001842D02*
X008136Y001842D01*
X008136Y001941D02*
X008039Y001941D01*
X008039Y002039D02*
X008136Y002039D01*
X008264Y002039D02*
X009375Y002039D01*
X009306Y001941D02*
X008432Y001941D01*
X008518Y001842D02*
X009306Y001842D01*
X009526Y001879D02*
X009526Y003579D01*
X010486Y003123D02*
X012706Y003123D01*
X012706Y003024D02*
X010421Y003024D01*
X010421Y002926D02*
X012768Y002926D01*
X013084Y002926D02*
X013239Y002926D01*
X013239Y002877D02*
X013297Y002818D01*
X013597Y002818D01*
X013655Y002877D01*
X013655Y003432D01*
X013597Y003491D01*
X013297Y003491D01*
X013239Y003432D01*
X013239Y002877D01*
X013288Y002827D02*
X010421Y002827D01*
X010421Y002729D02*
X014015Y002729D01*
X014015Y002827D02*
X013606Y002827D01*
X013655Y002926D02*
X013718Y002926D01*
X013656Y003024D02*
X013655Y003024D01*
X013655Y003123D02*
X013656Y003123D01*
X013655Y003221D02*
X013707Y003221D01*
X013655Y003320D02*
X013987Y003320D01*
X013987Y003418D02*
X013655Y003418D01*
X013977Y003517D02*
X013106Y003517D01*
X013106Y003615D02*
X013906Y003615D01*
X013906Y003714D02*
X013106Y003714D01*
X013106Y003812D02*
X013637Y003812D01*
X013817Y003812D02*
X013825Y003812D01*
X013817Y003911D02*
X013825Y003911D01*
X013817Y004009D02*
X013825Y004009D01*
X013817Y004108D02*
X013825Y004108D01*
X013817Y004206D02*
X013825Y004206D01*
X013817Y004305D02*
X013825Y004305D01*
X013817Y004403D02*
X013825Y004403D01*
X013817Y004502D02*
X013825Y004502D01*
X014015Y004600D02*
X013517Y004600D01*
X013538Y004579D02*
X013538Y004579D01*
X013239Y004403D02*
X013106Y004403D01*
X012746Y004403D02*
X012746Y004403D01*
X012746Y004502D02*
X012664Y004502D01*
X012306Y004403D02*
X010606Y004403D01*
X011169Y004009D02*
X011495Y004009D01*
X011495Y003911D02*
X011169Y003911D01*
X011169Y003517D02*
X011177Y003517D01*
X010782Y003418D02*
X012746Y003418D01*
X012746Y003320D02*
X010683Y003320D01*
X010585Y003221D02*
X012746Y003221D01*
X013106Y003221D02*
X013239Y003221D01*
X013239Y003320D02*
X013106Y003320D01*
X013106Y003418D02*
X013239Y003418D01*
X013239Y003123D02*
X013146Y003123D01*
X013146Y003024D02*
X013239Y003024D01*
X012800Y002565D02*
X012765Y002585D01*
X012727Y002595D01*
X012559Y002595D01*
X012559Y002277D01*
X012858Y002277D01*
X012858Y002465D01*
X012847Y002503D01*
X012828Y002537D01*
X012800Y002565D01*
X012831Y002532D02*
X013143Y002532D01*
X013109Y002433D02*
X012858Y002433D01*
X012858Y002335D02*
X013109Y002335D01*
X013109Y002138D02*
X012858Y002138D01*
X012858Y002180D02*
X012559Y002180D01*
X012559Y001862D01*
X012727Y001862D01*
X012765Y001872D01*
X012800Y001892D01*
X012828Y001920D01*
X012847Y001954D01*
X012858Y001992D01*
X012858Y002180D01*
X012858Y002039D02*
X013109Y002039D01*
X013147Y001941D02*
X012839Y001941D01*
X012559Y001941D02*
X012462Y001941D01*
X012462Y001862D02*
X012294Y001862D01*
X012256Y001872D01*
X012222Y001892D01*
X012194Y001920D01*
X012174Y001954D01*
X012164Y001992D01*
X012164Y002180D01*
X012462Y002180D01*
X012559Y002180D01*
X012559Y002277D01*
X012462Y002277D01*
X012462Y002180D01*
X012462Y001862D01*
X012182Y001941D02*
X012108Y001941D01*
X012138Y002039D02*
X012164Y002039D01*
X012164Y002138D02*
X012138Y002138D01*
X012138Y002236D02*
X012462Y002236D01*
X012462Y002277D02*
X012164Y002277D01*
X012164Y002465D01*
X012174Y002503D01*
X012194Y002537D01*
X012222Y002565D01*
X012256Y002585D01*
X012294Y002595D01*
X012462Y002595D01*
X012462Y002277D01*
X012462Y002335D02*
X012559Y002335D01*
X012559Y002236D02*
X013427Y002236D01*
X013427Y002138D02*
X013524Y002138D01*
X013524Y002039D02*
X013427Y002039D01*
X013427Y001941D02*
X013524Y001941D01*
X014006Y001870D02*
X014046Y001910D01*
X014046Y001941D01*
X014006Y001842D02*
X011002Y001842D01*
X011178Y001941D02*
X011575Y001941D01*
X011376Y002179D02*
X011791Y002179D01*
X011841Y002229D01*
X012138Y002335D02*
X012164Y002335D01*
X012164Y002433D02*
X012138Y002433D01*
X012093Y002532D02*
X012191Y002532D01*
X012462Y002532D02*
X012559Y002532D01*
X012559Y002433D02*
X012462Y002433D01*
X012462Y002138D02*
X012559Y002138D01*
X012559Y002039D02*
X012462Y002039D01*
X011545Y002335D02*
X011531Y002335D01*
X011545Y002433D02*
X011208Y002433D01*
X011162Y002532D02*
X011590Y002532D01*
X011221Y002335D02*
X011208Y002335D01*
X010976Y002163D02*
X010911Y002229D01*
X010976Y002163D02*
X010976Y002029D01*
X010676Y001729D01*
X010903Y001744D02*
X014006Y001744D01*
X014048Y001645D02*
X010896Y001645D01*
X010456Y001645D02*
X008599Y001645D01*
X008571Y001744D02*
X009350Y001744D01*
X009702Y001744D02*
X010456Y001744D01*
X010478Y001842D02*
X009746Y001842D01*
X009746Y001941D02*
X009975Y001941D01*
X009945Y002039D02*
X009677Y002039D01*
X009676Y002138D02*
X009945Y002138D01*
X009945Y002236D02*
X009676Y002236D01*
X009676Y002335D02*
X009945Y002335D01*
X009945Y002433D02*
X009676Y002433D01*
X009676Y002532D02*
X009990Y002532D01*
X010061Y002630D02*
X009676Y002630D01*
X009676Y002729D02*
X010061Y002729D01*
X010061Y002827D02*
X009676Y002827D01*
X009676Y002926D02*
X009768Y002926D01*
X009984Y002926D02*
X010061Y002926D01*
X010421Y002630D02*
X014015Y002630D01*
X013883Y002532D02*
X013807Y002532D01*
X013524Y002532D02*
X013427Y002532D01*
X013427Y002433D02*
X013524Y002433D01*
X013524Y002335D02*
X013427Y002335D01*
X010659Y002532D02*
X010493Y002532D01*
X010538Y002433D02*
X010614Y002433D01*
X010614Y002335D02*
X010538Y002335D01*
X010538Y002236D02*
X010614Y002236D01*
X010614Y002138D02*
X010538Y002138D01*
X010538Y002039D02*
X010614Y002039D01*
X010577Y001941D02*
X010508Y001941D01*
X013106Y003911D02*
X013239Y003911D01*
X013239Y004009D02*
X013106Y004009D01*
X013770Y004896D02*
X013842Y004896D01*
X013134Y005782D02*
X014609Y005782D01*
X014609Y005881D02*
X013035Y005881D01*
X014609Y006373D02*
X000351Y006373D01*
M02*
