G75*
%MOIN*%
%OFA0B0*%
%FSLAX24Y24*%
%IPPOS*%
%LPD*%
%AMOC8*
5,1,8,0,0,1.08239X$1,22.5*
%
%ADD10C,0.0080*%
%ADD11C,0.0050*%
%ADD12C,0.0220*%
D10*
X000161Y000753D02*
X000161Y006658D01*
X016769Y006658D01*
X016769Y000753D01*
X000161Y000753D01*
X001237Y001654D02*
X000987Y001904D01*
X000987Y002404D01*
X001237Y002654D01*
X000987Y002904D01*
X000987Y003404D01*
X001237Y003654D01*
X000987Y003904D01*
X000987Y004404D01*
X001237Y004654D01*
X000987Y004904D01*
X000987Y005404D01*
X001237Y005654D01*
X001737Y005654D01*
X001987Y005404D01*
X001987Y004904D01*
X001737Y004654D01*
X001987Y004404D01*
X001987Y003904D01*
X001737Y003654D01*
X001987Y003404D01*
X001987Y002904D01*
X001737Y002654D01*
X001987Y002404D01*
X001987Y001904D01*
X001737Y001654D01*
X001237Y001654D01*
X013261Y003497D02*
X013261Y003835D01*
X013715Y003347D02*
X013927Y003347D01*
X014381Y003497D02*
X014381Y003835D01*
D11*
X014326Y004404D02*
X014146Y004404D01*
X014236Y004404D02*
X014236Y004674D01*
X014146Y004584D01*
X014031Y004629D02*
X013986Y004674D01*
X013896Y004674D01*
X013851Y004629D01*
X013851Y004449D01*
X013896Y004404D01*
X013986Y004404D01*
X014031Y004449D01*
X012026Y004589D02*
X011846Y004589D01*
X011981Y004724D01*
X011981Y004454D01*
X011731Y004454D02*
X011641Y004544D01*
X011686Y004544D02*
X011551Y004544D01*
X011686Y004544D02*
X011731Y004589D01*
X011731Y004679D01*
X011686Y004724D01*
X011551Y004724D01*
X011551Y004454D01*
X010476Y004499D02*
X010431Y004454D01*
X010341Y004454D01*
X010296Y004499D01*
X010181Y004454D02*
X010091Y004544D01*
X010136Y004544D02*
X010001Y004544D01*
X010136Y004544D02*
X010181Y004589D01*
X010181Y004679D01*
X010136Y004724D01*
X010001Y004724D01*
X010001Y004454D01*
X010386Y004589D02*
X010431Y004589D01*
X010476Y004544D01*
X010476Y004499D01*
X010431Y004589D02*
X010476Y004634D01*
X010476Y004679D01*
X010431Y004724D01*
X010341Y004724D01*
X010296Y004679D01*
X011601Y003324D02*
X011736Y003324D01*
X011781Y003279D01*
X011781Y003189D01*
X011736Y003144D01*
X011601Y003144D01*
X011691Y003144D02*
X011781Y003054D01*
X011896Y003054D02*
X012076Y003054D01*
X011986Y003054D02*
X011986Y003324D01*
X011896Y003234D01*
X011601Y003324D02*
X011601Y003054D01*
X010576Y003004D02*
X010396Y003004D01*
X010576Y003184D01*
X010576Y003229D01*
X010531Y003274D01*
X010441Y003274D01*
X010396Y003229D01*
X010281Y003229D02*
X010281Y003139D01*
X010236Y003094D01*
X010101Y003094D01*
X010191Y003094D02*
X010281Y003004D01*
X010101Y003004D02*
X010101Y003274D01*
X010236Y003274D01*
X010281Y003229D01*
X010296Y001774D02*
X010296Y001639D01*
X010386Y001684D01*
X010431Y001684D01*
X010476Y001639D01*
X010476Y001549D01*
X010431Y001504D01*
X010341Y001504D01*
X010296Y001549D01*
X010181Y001504D02*
X010091Y001594D01*
X010136Y001594D02*
X010001Y001594D01*
X010001Y001504D02*
X010001Y001774D01*
X010136Y001774D01*
X010181Y001729D01*
X010181Y001639D01*
X010136Y001594D01*
X010296Y001774D02*
X010476Y001774D01*
X011601Y001774D02*
X011601Y001504D01*
X011601Y001594D02*
X011736Y001594D01*
X011781Y001639D01*
X011781Y001729D01*
X011736Y001774D01*
X011601Y001774D01*
X011896Y001639D02*
X012031Y001639D01*
X012076Y001594D01*
X012076Y001549D01*
X012031Y001504D01*
X011941Y001504D01*
X011896Y001549D01*
X011896Y001639D01*
X011986Y001729D01*
X012076Y001774D01*
X011781Y001504D02*
X011691Y001594D01*
X013251Y001549D02*
X013296Y001504D01*
X013386Y001504D01*
X013431Y001549D01*
X013546Y001504D02*
X013726Y001684D01*
X013726Y001729D01*
X013681Y001774D01*
X013591Y001774D01*
X013546Y001729D01*
X013431Y001729D02*
X013386Y001774D01*
X013296Y001774D01*
X013251Y001729D01*
X013251Y001549D01*
X013546Y001504D02*
X013726Y001504D01*
X002501Y001799D02*
X002456Y001754D01*
X002276Y001754D01*
X002231Y001799D01*
X002231Y001889D01*
X002276Y001934D01*
X002366Y001934D02*
X002366Y001844D01*
X002366Y001934D02*
X002456Y001934D01*
X002501Y001889D01*
X002501Y001799D01*
X002501Y002048D02*
X002231Y002048D01*
X002501Y002229D01*
X002231Y002229D01*
X002231Y002343D02*
X002231Y002478D01*
X002276Y002523D01*
X002456Y002523D01*
X002501Y002478D01*
X002501Y002343D01*
X002231Y002343D01*
X002231Y002754D02*
X002411Y002754D01*
X002501Y002844D01*
X002411Y002934D01*
X002231Y002934D01*
X002276Y003048D02*
X002456Y003048D01*
X002501Y003093D01*
X002501Y003184D01*
X002456Y003229D01*
X002456Y003343D02*
X002276Y003343D01*
X002231Y003388D01*
X002231Y003478D01*
X002276Y003523D01*
X002456Y003523D02*
X002501Y003478D01*
X002501Y003388D01*
X002456Y003343D01*
X002276Y003229D02*
X002231Y003184D01*
X002231Y003093D01*
X002276Y003048D01*
X002276Y003854D02*
X002321Y003854D01*
X002366Y003899D01*
X002366Y003989D01*
X002411Y004034D01*
X002456Y004034D01*
X002501Y003989D01*
X002501Y003899D01*
X002456Y003854D01*
X002276Y003854D02*
X002231Y003899D01*
X002231Y003989D01*
X002276Y004034D01*
X002276Y004148D02*
X002456Y004148D01*
X002501Y004193D01*
X002501Y004284D01*
X002456Y004329D01*
X002501Y004443D02*
X002231Y004443D01*
X002276Y004329D02*
X002231Y004284D01*
X002231Y004193D01*
X002276Y004148D01*
X002501Y004443D02*
X002501Y004623D01*
X002456Y004854D02*
X002501Y004899D01*
X002501Y004989D01*
X002456Y005034D01*
X002411Y005034D01*
X002366Y004989D01*
X002366Y004899D01*
X002321Y004854D01*
X002276Y004854D01*
X002231Y004899D01*
X002231Y004989D01*
X002276Y005034D01*
X002231Y005148D02*
X002231Y005284D01*
X002276Y005329D01*
X002456Y005329D01*
X002501Y005284D01*
X002501Y005148D01*
X002231Y005148D01*
X002321Y005443D02*
X002231Y005533D01*
X002321Y005623D01*
X002501Y005623D01*
X002366Y005623D02*
X002366Y005443D01*
X002321Y005443D02*
X002501Y005443D01*
D12*
X013771Y005199D02*
X013771Y005175D01*
X013810Y002250D02*
X013810Y002226D01*
M02*
