G75*
%MOIN*%
%OFA0B0*%
%FSLAX24Y24*%
%IPPOS*%
%LPD*%
%AMOC8*
5,1,8,0,0,1.08239X$1,22.5*
%
%ADD10C,0.0080*%
%ADD11R,0.0394X0.0394*%
%ADD12R,0.0740X0.0740*%
%ADD13C,0.0740*%
%ADD14R,0.0630X0.0906*%
%ADD15C,0.0240*%
%ADD16C,0.0160*%
%ADD17C,0.0100*%
D10*
X000161Y000753D02*
X000161Y006658D01*
X016769Y006658D01*
X016769Y000753D01*
X000161Y000753D01*
D11*
X009542Y001272D03*
X010329Y001272D03*
X011117Y001272D03*
X011904Y001272D03*
X012691Y001272D03*
X013479Y001272D03*
X014266Y001272D03*
X014266Y006233D03*
X013479Y006233D03*
X012691Y006233D03*
X011904Y006233D03*
X011117Y006233D03*
X010329Y006233D03*
X009542Y006233D03*
D12*
X001487Y002154D03*
D13*
X001487Y003154D03*
X001487Y004154D03*
X001487Y005154D03*
X006076Y005829D03*
X007076Y005829D03*
X008076Y005829D03*
X008087Y001550D03*
X007087Y001550D03*
D14*
X004089Y002489D03*
X004089Y004969D03*
D15*
X005326Y004229D03*
X007176Y003679D03*
X005326Y002529D03*
X002776Y002579D03*
X002376Y004329D03*
X009526Y001879D03*
X010676Y001729D03*
X011376Y002179D03*
X009876Y003129D03*
X011326Y003679D03*
X012526Y004329D03*
X013276Y004629D03*
X012126Y004729D03*
X011276Y005179D03*
X010626Y004679D03*
X012926Y005679D03*
X014126Y003679D03*
X013876Y003079D03*
X012926Y003079D03*
X014226Y001779D03*
D16*
X014226Y001313D01*
X014266Y001272D01*
X013876Y003079D02*
X012926Y003079D01*
X014126Y003679D02*
X011326Y003679D01*
X007176Y003679D01*
X009876Y003129D02*
X001512Y003129D01*
X001487Y003154D01*
X010626Y004679D02*
X010676Y004729D01*
X012126Y004729D01*
D17*
X012270Y004896D02*
X014648Y004896D01*
X014648Y004797D02*
X013419Y004797D01*
X013367Y004849D02*
X013496Y004720D01*
X013496Y004538D01*
X013367Y004409D01*
X013268Y004409D01*
X013038Y004179D01*
X012687Y004179D01*
X012617Y004109D01*
X012435Y004109D01*
X012306Y004238D01*
X012306Y004420D01*
X012435Y004549D01*
X012617Y004549D01*
X012687Y004479D01*
X012914Y004479D01*
X013056Y004621D01*
X013056Y004720D01*
X013185Y004849D01*
X013367Y004849D01*
X013496Y004699D02*
X014648Y004699D01*
X014648Y004600D02*
X013496Y004600D01*
X013460Y004502D02*
X014648Y004502D01*
X014648Y004403D02*
X013263Y004403D01*
X013164Y004305D02*
X014648Y004305D01*
X014648Y004206D02*
X013066Y004206D01*
X012976Y004329D02*
X013276Y004629D01*
X013056Y004699D02*
X012346Y004699D01*
X012346Y004638D02*
X012217Y004509D01*
X012035Y004509D01*
X011995Y004549D01*
X010807Y004549D01*
X010717Y004459D01*
X010535Y004459D01*
X010406Y004588D01*
X010406Y004770D01*
X010535Y004899D01*
X010591Y004899D01*
X010601Y004909D01*
X011995Y004909D01*
X012035Y004949D01*
X012217Y004949D01*
X012346Y004820D01*
X012346Y004638D01*
X012309Y004600D02*
X013035Y004600D01*
X012937Y004502D02*
X012664Y004502D01*
X012388Y004502D02*
X010760Y004502D01*
X010492Y004502D02*
X004554Y004502D01*
X004554Y004496D02*
X004554Y004919D01*
X004139Y004919D01*
X004139Y005019D01*
X004554Y005019D01*
X004554Y005441D01*
X004543Y005480D01*
X004524Y005514D01*
X004496Y005542D01*
X004461Y005561D01*
X004423Y005572D01*
X004139Y005572D01*
X004139Y005019D01*
X004039Y005019D01*
X004039Y005572D01*
X003754Y005572D01*
X003716Y005561D01*
X003682Y005542D01*
X003654Y005514D01*
X003634Y005480D01*
X003624Y005441D01*
X003624Y005019D01*
X004039Y005019D01*
X004039Y004919D01*
X003624Y004919D01*
X003624Y004496D01*
X003628Y004479D01*
X002537Y004479D01*
X002467Y004549D01*
X002285Y004549D01*
X002156Y004420D01*
X002156Y004238D01*
X002285Y004109D01*
X002467Y004109D01*
X002537Y004179D01*
X005106Y004179D01*
X005106Y004138D01*
X005235Y004009D01*
X005417Y004009D01*
X005546Y004138D01*
X005546Y004320D01*
X005417Y004449D01*
X005318Y004449D01*
X005288Y004479D01*
X004549Y004479D01*
X004554Y004496D01*
X004554Y004600D02*
X010406Y004600D01*
X010406Y004699D02*
X008708Y004699D01*
X008688Y004679D02*
X009288Y005279D01*
X011065Y005279D01*
X011056Y005270D01*
X011056Y005088D01*
X011185Y004959D01*
X011367Y004959D01*
X011496Y005088D01*
X011496Y005237D01*
X011938Y005679D01*
X012349Y005679D01*
X012607Y005936D01*
X012930Y005936D01*
X012988Y005995D01*
X012988Y006468D01*
X013182Y006468D01*
X013182Y006148D01*
X012932Y005899D01*
X012835Y005899D01*
X012706Y005770D01*
X012706Y005588D01*
X012835Y005459D01*
X013017Y005459D01*
X013146Y005588D01*
X013146Y005688D01*
X013394Y005936D01*
X013717Y005936D01*
X013776Y005995D01*
X013776Y006468D01*
X013969Y006468D01*
X013969Y005995D01*
X014028Y005936D01*
X014504Y005936D01*
X014563Y005995D01*
X014563Y006468D01*
X014648Y006468D01*
X014648Y000943D01*
X000351Y000943D01*
X000351Y006468D01*
X009200Y006468D01*
X009195Y006450D01*
X009195Y006281D01*
X009493Y006281D01*
X009493Y006185D01*
X009195Y006185D01*
X009195Y006016D01*
X009205Y005978D01*
X009225Y005944D01*
X009240Y005929D01*
X009014Y005929D01*
X008926Y005841D01*
X008364Y005279D01*
X007838Y005279D01*
X007498Y005619D01*
X007546Y005735D01*
X007546Y005922D01*
X007474Y006095D01*
X007342Y006227D01*
X007170Y006299D01*
X006983Y006299D01*
X006810Y006227D01*
X006678Y006095D01*
X006606Y005922D01*
X006606Y005735D01*
X006678Y005563D01*
X006810Y005430D01*
X006983Y005359D01*
X007170Y005359D01*
X007286Y005407D01*
X007626Y005067D01*
X007714Y004979D01*
X008488Y004979D01*
X008538Y005029D01*
X009138Y005629D01*
X010838Y005629D01*
X010938Y005729D01*
X011088Y005879D01*
X011146Y005936D01*
X011355Y005936D01*
X011413Y005995D01*
X011413Y006468D01*
X011607Y006468D01*
X011607Y006148D01*
X011038Y005579D01*
X009164Y005579D01*
X009076Y005491D01*
X008564Y004979D01*
X007138Y004979D01*
X006498Y005619D01*
X006546Y005735D01*
X006546Y005922D01*
X006474Y006095D01*
X006342Y006227D01*
X006170Y006299D01*
X005983Y006299D01*
X005810Y006227D01*
X005678Y006095D01*
X005606Y005922D01*
X005606Y005735D01*
X005678Y005563D01*
X005810Y005430D01*
X005983Y005359D01*
X006170Y005359D01*
X006286Y005407D01*
X006926Y004767D01*
X007014Y004679D01*
X008688Y004679D01*
X008807Y004797D02*
X010433Y004797D01*
X010532Y004896D02*
X008905Y004896D01*
X008626Y004829D02*
X009226Y005429D01*
X011100Y005429D01*
X011904Y006233D01*
X011607Y006275D02*
X011413Y006275D01*
X011413Y006176D02*
X011607Y006176D01*
X011537Y006078D02*
X011413Y006078D01*
X011398Y005979D02*
X011438Y005979D01*
X011340Y005881D02*
X011090Y005881D01*
X010992Y005782D02*
X011241Y005782D01*
X011143Y005684D02*
X010893Y005684D01*
X010776Y005779D02*
X010876Y005879D01*
X011026Y006029D01*
X011026Y006143D01*
X011117Y006233D01*
X010820Y006275D02*
X010626Y006275D01*
X010626Y006176D02*
X010820Y006176D01*
X010820Y006078D02*
X010626Y006078D01*
X010726Y005941D02*
X010820Y006035D01*
X010820Y006468D01*
X010626Y006468D01*
X010626Y005995D01*
X010567Y005936D01*
X010091Y005936D01*
X010032Y005995D01*
X010032Y006468D01*
X009884Y006468D01*
X009889Y006450D01*
X009889Y006281D01*
X009590Y006281D01*
X009590Y006185D01*
X009889Y006185D01*
X009889Y006016D01*
X009878Y005978D01*
X009859Y005944D01*
X009843Y005929D01*
X010714Y005929D01*
X010726Y005941D01*
X010764Y005979D02*
X010611Y005979D01*
X010776Y005779D02*
X009076Y005779D01*
X008476Y005179D01*
X008426Y005129D01*
X007776Y005129D01*
X007076Y005829D01*
X006630Y005979D02*
X006522Y005979D01*
X006546Y005881D02*
X006606Y005881D01*
X006606Y005782D02*
X006546Y005782D01*
X006525Y005684D02*
X006627Y005684D01*
X006668Y005585D02*
X006532Y005585D01*
X006630Y005487D02*
X006753Y005487D01*
X006729Y005388D02*
X006911Y005388D01*
X006827Y005290D02*
X007403Y005290D01*
X007304Y005388D02*
X007241Y005388D01*
X007501Y005191D02*
X006926Y005191D01*
X007024Y005093D02*
X007600Y005093D01*
X007698Y004994D02*
X007123Y004994D01*
X007076Y004829D02*
X008626Y004829D01*
X008579Y004994D02*
X008504Y004994D01*
X008602Y005093D02*
X008678Y005093D01*
X008701Y005191D02*
X008776Y005191D01*
X008799Y005290D02*
X008875Y005290D01*
X008898Y005388D02*
X008973Y005388D01*
X008996Y005487D02*
X009072Y005487D01*
X009095Y005585D02*
X011044Y005585D01*
X011648Y005388D02*
X014648Y005388D01*
X014648Y005290D02*
X011549Y005290D01*
X011496Y005191D02*
X014648Y005191D01*
X014648Y005093D02*
X011496Y005093D01*
X011403Y004994D02*
X014648Y004994D01*
X014648Y005487D02*
X013045Y005487D01*
X013144Y005585D02*
X014648Y005585D01*
X014648Y005684D02*
X013146Y005684D01*
X012926Y005680D02*
X013479Y006233D01*
X013776Y006275D02*
X013969Y006275D01*
X013969Y006176D02*
X013776Y006176D01*
X013776Y006078D02*
X013969Y006078D01*
X013985Y005979D02*
X013760Y005979D01*
X013339Y005881D02*
X014648Y005881D01*
X014648Y005979D02*
X014548Y005979D01*
X014563Y006078D02*
X014648Y006078D01*
X014648Y006176D02*
X014563Y006176D01*
X014563Y006275D02*
X014648Y006275D01*
X014648Y006373D02*
X014563Y006373D01*
X013969Y006373D02*
X013776Y006373D01*
X013182Y006373D02*
X012988Y006373D01*
X012988Y006275D02*
X013182Y006275D01*
X013182Y006176D02*
X012988Y006176D01*
X012988Y006078D02*
X013111Y006078D01*
X013013Y005979D02*
X012973Y005979D01*
X012817Y005881D02*
X012551Y005881D01*
X012453Y005782D02*
X012718Y005782D01*
X012706Y005684D02*
X012354Y005684D01*
X012287Y005829D02*
X012691Y006233D01*
X012287Y005829D02*
X011876Y005829D01*
X011276Y005229D01*
X011276Y005179D01*
X011056Y005191D02*
X009201Y005191D01*
X009102Y005093D02*
X011056Y005093D01*
X011149Y004994D02*
X009004Y004994D01*
X008375Y005290D02*
X007827Y005290D01*
X007876Y005347D02*
X007954Y005322D01*
X008026Y005310D01*
X008026Y005779D01*
X007557Y005779D01*
X007569Y005707D01*
X007594Y005629D01*
X007631Y005556D01*
X007679Y005490D01*
X007737Y005432D01*
X007803Y005384D01*
X007876Y005347D01*
X007798Y005388D02*
X007729Y005388D01*
X007683Y005487D02*
X007630Y005487D01*
X007616Y005585D02*
X007532Y005585D01*
X007525Y005684D02*
X007576Y005684D01*
X007546Y005782D02*
X008026Y005782D01*
X008026Y005779D02*
X008026Y005879D01*
X008026Y006347D01*
X007954Y006336D01*
X007876Y006311D01*
X007803Y006273D01*
X007737Y006225D01*
X007679Y006167D01*
X007631Y006101D01*
X007594Y006028D01*
X007569Y005951D01*
X007557Y005879D01*
X008026Y005879D01*
X008126Y005879D01*
X008126Y006347D01*
X008198Y006336D01*
X008276Y006311D01*
X008349Y006273D01*
X008415Y006225D01*
X008473Y006167D01*
X008521Y006101D01*
X008558Y006028D01*
X008583Y005951D01*
X008595Y005879D01*
X008126Y005879D01*
X008126Y005779D01*
X008595Y005779D01*
X008583Y005707D01*
X008558Y005629D01*
X008521Y005556D01*
X008473Y005490D01*
X008415Y005432D01*
X008349Y005384D01*
X008276Y005347D01*
X008198Y005322D01*
X008126Y005310D01*
X008126Y005779D01*
X008026Y005779D01*
X008026Y005684D02*
X008126Y005684D01*
X008126Y005585D02*
X008026Y005585D01*
X008026Y005487D02*
X008126Y005487D01*
X008126Y005388D02*
X008026Y005388D01*
X008354Y005388D02*
X008473Y005388D01*
X008469Y005487D02*
X008572Y005487D01*
X008536Y005585D02*
X008670Y005585D01*
X008576Y005684D02*
X008769Y005684D01*
X008867Y005782D02*
X008126Y005782D01*
X008126Y005881D02*
X008026Y005881D01*
X008026Y005979D02*
X008126Y005979D01*
X008126Y006078D02*
X008026Y006078D01*
X008026Y006176D02*
X008126Y006176D01*
X008126Y006275D02*
X008026Y006275D01*
X007806Y006275D02*
X007227Y006275D01*
X007393Y006176D02*
X007688Y006176D01*
X007619Y006078D02*
X007482Y006078D01*
X007522Y005979D02*
X007578Y005979D01*
X007558Y005881D02*
X007546Y005881D01*
X006925Y006275D02*
X006227Y006275D01*
X006393Y006176D02*
X006759Y006176D01*
X006670Y006078D02*
X006482Y006078D01*
X005925Y006275D02*
X000351Y006275D01*
X000351Y006176D02*
X005759Y006176D01*
X005670Y006078D02*
X000351Y006078D01*
X000351Y005979D02*
X005630Y005979D01*
X005606Y005881D02*
X000351Y005881D01*
X000351Y005782D02*
X005606Y005782D01*
X005627Y005684D02*
X000351Y005684D01*
X000351Y005585D02*
X001299Y005585D01*
X001220Y005553D02*
X001088Y005421D01*
X001017Y005248D01*
X001017Y005061D01*
X001088Y004888D01*
X001220Y004756D01*
X001393Y004684D01*
X001580Y004684D01*
X001753Y004756D01*
X001885Y004888D01*
X001957Y005061D01*
X001957Y005248D01*
X001885Y005421D01*
X001753Y005553D01*
X001580Y005624D01*
X001393Y005624D01*
X001220Y005553D01*
X001154Y005487D02*
X000351Y005487D01*
X000351Y005388D02*
X001075Y005388D01*
X001034Y005290D02*
X000351Y005290D01*
X000351Y005191D02*
X001017Y005191D01*
X001017Y005093D02*
X000351Y005093D01*
X000351Y004994D02*
X001044Y004994D01*
X001085Y004896D02*
X000351Y004896D01*
X000351Y004797D02*
X001179Y004797D01*
X001358Y004699D02*
X000351Y004699D01*
X000351Y004600D02*
X001335Y004600D01*
X001393Y004624D02*
X001220Y004553D01*
X001088Y004421D01*
X001017Y004248D01*
X001017Y004061D01*
X001088Y003888D01*
X001220Y003756D01*
X001393Y003684D01*
X001580Y003684D01*
X001753Y003756D01*
X001885Y003888D01*
X001957Y004061D01*
X001957Y004248D01*
X001885Y004421D01*
X001753Y004553D01*
X001580Y004624D01*
X001393Y004624D01*
X001615Y004699D02*
X003624Y004699D01*
X003624Y004797D02*
X001794Y004797D01*
X001888Y004896D02*
X003624Y004896D01*
X004039Y004994D02*
X001929Y004994D01*
X001957Y005093D02*
X003624Y005093D01*
X003624Y005191D02*
X001957Y005191D01*
X001939Y005290D02*
X003624Y005290D01*
X003624Y005388D02*
X001898Y005388D01*
X001819Y005487D02*
X003638Y005487D01*
X004039Y005487D02*
X004139Y005487D01*
X004139Y005388D02*
X004039Y005388D01*
X004039Y005290D02*
X004139Y005290D01*
X004139Y005191D02*
X004039Y005191D01*
X004039Y005093D02*
X004139Y005093D01*
X004139Y004994D02*
X006698Y004994D01*
X006600Y005093D02*
X004554Y005093D01*
X004554Y005191D02*
X006501Y005191D01*
X006403Y005290D02*
X004554Y005290D01*
X004554Y005388D02*
X005911Y005388D01*
X005753Y005487D02*
X004539Y005487D01*
X005668Y005585D02*
X001674Y005585D01*
X000351Y006373D02*
X009195Y006373D01*
X009493Y006275D02*
X008346Y006275D01*
X008464Y006176D02*
X009195Y006176D01*
X009195Y006078D02*
X008533Y006078D01*
X008574Y005979D02*
X009205Y005979D01*
X008966Y005881D02*
X008594Y005881D01*
X009590Y006275D02*
X010032Y006275D01*
X010032Y006176D02*
X009889Y006176D01*
X009889Y006078D02*
X010032Y006078D01*
X010048Y005979D02*
X009879Y005979D01*
X009889Y006373D02*
X010032Y006373D01*
X010626Y006373D02*
X010820Y006373D01*
X011413Y006373D02*
X011607Y006373D01*
X012926Y005680D02*
X012926Y005679D01*
X012708Y005585D02*
X011845Y005585D01*
X011746Y005487D02*
X012807Y005487D01*
X013240Y005782D02*
X014648Y005782D01*
X013133Y004797D02*
X012346Y004797D01*
X012306Y004403D02*
X005463Y004403D01*
X005546Y004305D02*
X012306Y004305D01*
X012337Y004206D02*
X005546Y004206D01*
X005516Y004108D02*
X014648Y004108D01*
X014648Y004009D02*
X005418Y004009D01*
X005234Y004009D02*
X001935Y004009D01*
X001895Y003911D02*
X014648Y003911D01*
X014648Y003812D02*
X014304Y003812D01*
X014346Y003770D02*
X014217Y003899D01*
X014035Y003899D01*
X013995Y003859D01*
X011457Y003859D01*
X011417Y003899D01*
X011235Y003899D01*
X011195Y003859D01*
X007307Y003859D01*
X007267Y003899D01*
X007085Y003899D01*
X006956Y003770D01*
X006956Y003588D01*
X007085Y003459D01*
X007267Y003459D01*
X007307Y003499D01*
X011195Y003499D01*
X011235Y003459D01*
X011417Y003459D01*
X011457Y003499D01*
X013995Y003499D01*
X014035Y003459D01*
X014217Y003459D01*
X014346Y003588D01*
X014346Y003770D01*
X014346Y003714D02*
X014648Y003714D01*
X014648Y003615D02*
X014346Y003615D01*
X014275Y003517D02*
X014648Y003517D01*
X014648Y003418D02*
X001886Y003418D01*
X001885Y003421D02*
X001753Y003553D01*
X001580Y003624D01*
X001393Y003624D01*
X001220Y003553D01*
X001088Y003421D01*
X001017Y003248D01*
X001017Y003061D01*
X001088Y002888D01*
X001220Y002756D01*
X001393Y002684D01*
X001580Y002684D01*
X001753Y002756D01*
X001885Y002888D01*
X001910Y002949D01*
X003674Y002949D01*
X003674Y002639D01*
X002996Y002639D01*
X002996Y002670D01*
X002867Y002799D01*
X002685Y002799D01*
X002556Y002670D01*
X002556Y002488D01*
X002685Y002359D01*
X002784Y002359D01*
X002804Y002339D01*
X003674Y002339D01*
X003674Y001994D01*
X003732Y001936D01*
X004445Y001936D01*
X004504Y001994D01*
X004504Y002029D01*
X007882Y002029D01*
X007815Y001995D01*
X007749Y001947D01*
X007691Y001889D01*
X007643Y001823D01*
X007606Y001750D01*
X007580Y001672D01*
X007569Y001598D01*
X008039Y001598D01*
X008039Y001502D01*
X007569Y001502D01*
X007580Y001428D01*
X007606Y001350D01*
X007513Y001350D01*
X007486Y001284D02*
X007557Y001457D01*
X007557Y001643D01*
X007486Y001816D01*
X007354Y001948D01*
X007181Y002020D01*
X006994Y002020D01*
X006821Y001948D01*
X006689Y001816D01*
X006617Y001643D01*
X006617Y001457D01*
X006689Y001284D01*
X006821Y001152D01*
X006994Y001080D01*
X007181Y001080D01*
X007354Y001152D01*
X007486Y001284D01*
X007453Y001251D02*
X007662Y001251D01*
X007643Y001277D02*
X007691Y001211D01*
X007749Y001153D01*
X007815Y001105D01*
X007888Y001068D01*
X007966Y001043D01*
X008039Y001031D01*
X008039Y001502D01*
X008136Y001502D01*
X008136Y001598D01*
X008606Y001598D01*
X008595Y001672D01*
X008569Y001750D01*
X008532Y001823D01*
X008484Y001889D01*
X008426Y001947D01*
X008360Y001995D01*
X008293Y002029D01*
X009114Y002029D01*
X009306Y001837D01*
X009306Y001788D01*
X009392Y001702D01*
X009392Y001569D01*
X009304Y001569D01*
X009245Y001511D01*
X009245Y001034D01*
X009304Y000976D01*
X009780Y000976D01*
X009839Y001034D01*
X009839Y001511D01*
X009780Y001569D01*
X009692Y001569D01*
X009692Y001733D01*
X009746Y001788D01*
X009746Y001947D01*
X010123Y001569D01*
X010091Y001569D01*
X010032Y001511D01*
X010032Y001034D01*
X010091Y000976D01*
X010567Y000976D01*
X010626Y001034D01*
X010626Y001467D01*
X010668Y001509D01*
X010767Y001509D01*
X010896Y001638D01*
X010896Y001820D01*
X010767Y001949D01*
X010585Y001949D01*
X010456Y001820D01*
X010456Y001726D01*
X010391Y001726D01*
X009626Y002491D01*
X009538Y002579D01*
X005546Y002579D01*
X005546Y002620D01*
X005417Y002749D01*
X005235Y002749D01*
X005106Y002620D01*
X005106Y002438D01*
X005215Y002329D01*
X004504Y002329D01*
X004504Y002949D01*
X009745Y002949D01*
X009785Y002909D01*
X009967Y002909D01*
X010096Y003038D01*
X010096Y003220D01*
X009967Y003349D01*
X009785Y003349D01*
X009745Y003309D01*
X001931Y003309D01*
X001885Y003421D01*
X001927Y003320D02*
X009756Y003320D01*
X009996Y003320D02*
X014648Y003320D01*
X014648Y003221D02*
X014045Y003221D01*
X014096Y003170D02*
X013967Y003299D01*
X013785Y003299D01*
X013745Y003259D01*
X013057Y003259D01*
X013017Y003299D01*
X012835Y003299D01*
X012706Y003170D01*
X012706Y002988D01*
X012835Y002859D01*
X013017Y002859D01*
X013057Y002899D01*
X013745Y002899D01*
X013785Y002859D01*
X013967Y002859D01*
X014096Y002988D01*
X014096Y003170D01*
X014096Y003123D02*
X014648Y003123D01*
X014648Y003024D02*
X014096Y003024D01*
X014034Y002926D02*
X014648Y002926D01*
X014648Y002827D02*
X004504Y002827D01*
X004504Y002729D02*
X005215Y002729D01*
X005116Y002630D02*
X004504Y002630D01*
X004504Y002532D02*
X005106Y002532D01*
X005110Y002433D02*
X004504Y002433D01*
X004504Y002335D02*
X005209Y002335D01*
X005326Y002529D02*
X005426Y002429D01*
X009476Y002429D01*
X010329Y001576D01*
X010523Y001576D01*
X010676Y001729D01*
X010896Y001744D02*
X010967Y001744D01*
X010967Y001645D02*
X010896Y001645D01*
X010878Y001569D02*
X010820Y001511D01*
X010820Y001034D01*
X010878Y000976D01*
X011355Y000976D01*
X011413Y001034D01*
X011413Y001511D01*
X011355Y001569D01*
X011267Y001569D01*
X011267Y001857D01*
X011368Y001959D01*
X011467Y001959D01*
X011596Y002088D01*
X011596Y002270D01*
X011467Y002399D01*
X011285Y002399D01*
X011156Y002270D01*
X011156Y002171D01*
X010967Y001981D01*
X010967Y001569D01*
X010878Y001569D01*
X010856Y001547D02*
X010805Y001547D01*
X010820Y001448D02*
X010626Y001448D01*
X010626Y001350D02*
X010820Y001350D01*
X010820Y001251D02*
X010626Y001251D01*
X010329Y001272D02*
X010329Y001576D01*
X010373Y001744D02*
X010456Y001744D01*
X010478Y001842D02*
X010275Y001842D01*
X010176Y001941D02*
X010577Y001941D01*
X010775Y001941D02*
X010967Y001941D01*
X010967Y001842D02*
X010874Y001842D01*
X011117Y001919D02*
X011376Y002179D01*
X011596Y002138D02*
X014648Y002138D01*
X014648Y002236D02*
X011596Y002236D01*
X011531Y002335D02*
X014648Y002335D01*
X014648Y002433D02*
X009684Y002433D01*
X009585Y002532D02*
X014648Y002532D01*
X014648Y002630D02*
X005536Y002630D01*
X005437Y002729D02*
X014648Y002729D01*
X014648Y002039D02*
X011548Y002039D01*
X011350Y001941D02*
X014077Y001941D01*
X014135Y001999D02*
X014006Y001870D01*
X014006Y001688D01*
X014046Y001648D01*
X014046Y001569D01*
X014028Y001569D01*
X013969Y001511D01*
X013969Y001034D01*
X014028Y000976D01*
X014504Y000976D01*
X014563Y001034D01*
X014563Y001511D01*
X014504Y001569D01*
X014406Y001569D01*
X014406Y001648D01*
X014446Y001688D01*
X014446Y001870D01*
X014317Y001999D01*
X014135Y001999D01*
X014006Y001842D02*
X011267Y001842D01*
X011117Y001919D02*
X011117Y001272D01*
X011413Y001251D02*
X011607Y001251D01*
X011607Y001350D02*
X011413Y001350D01*
X011413Y001448D02*
X011607Y001448D01*
X011607Y001511D02*
X011607Y001034D01*
X011666Y000976D01*
X012142Y000976D01*
X012201Y001034D01*
X012201Y001511D01*
X012142Y001569D01*
X011666Y001569D01*
X011607Y001511D01*
X011643Y001547D02*
X011377Y001547D01*
X011267Y001645D02*
X014046Y001645D01*
X014005Y001547D02*
X013740Y001547D01*
X013717Y001569D02*
X013776Y001511D01*
X013776Y001034D01*
X013717Y000976D01*
X013241Y000976D01*
X013182Y001034D01*
X013182Y001511D01*
X013241Y001569D01*
X013717Y001569D01*
X013776Y001448D02*
X013969Y001448D01*
X013969Y001350D02*
X013776Y001350D01*
X013776Y001251D02*
X013969Y001251D01*
X013969Y001153D02*
X013776Y001153D01*
X013776Y001054D02*
X013969Y001054D01*
X014563Y001054D02*
X014648Y001054D01*
X014648Y000956D02*
X000351Y000956D01*
X000351Y001054D02*
X007930Y001054D01*
X008039Y001054D02*
X008136Y001054D01*
X008136Y001031D02*
X008209Y001043D01*
X008287Y001068D01*
X008360Y001105D01*
X008426Y001153D01*
X008484Y001211D01*
X008532Y001277D01*
X008569Y001350D01*
X009245Y001350D01*
X009245Y001448D02*
X008598Y001448D01*
X008595Y001428D02*
X008606Y001502D01*
X008136Y001502D01*
X008136Y001031D01*
X008244Y001054D02*
X009245Y001054D01*
X009245Y001153D02*
X008425Y001153D01*
X008136Y001153D02*
X008039Y001153D01*
X008039Y001251D02*
X008136Y001251D01*
X008136Y001350D02*
X008039Y001350D01*
X008039Y001448D02*
X008136Y001448D01*
X008136Y001547D02*
X009281Y001547D01*
X009392Y001645D02*
X008599Y001645D01*
X008571Y001744D02*
X009350Y001744D01*
X009300Y001842D02*
X008518Y001842D01*
X008432Y001941D02*
X009202Y001941D01*
X009176Y002179D02*
X009476Y001879D01*
X009526Y001879D01*
X009542Y001863D01*
X009542Y001272D01*
X009839Y001251D02*
X010032Y001251D01*
X010032Y001350D02*
X009839Y001350D01*
X009839Y001448D02*
X010032Y001448D01*
X010068Y001547D02*
X009803Y001547D01*
X009692Y001645D02*
X010047Y001645D01*
X009949Y001744D02*
X009702Y001744D01*
X009746Y001842D02*
X009850Y001842D01*
X009752Y001941D02*
X009746Y001941D01*
X010078Y002039D02*
X011024Y002039D01*
X011123Y002138D02*
X009979Y002138D01*
X009881Y002236D02*
X011156Y002236D01*
X011221Y002335D02*
X009782Y002335D01*
X009176Y002179D02*
X004398Y002179D01*
X004089Y002489D01*
X002866Y002489D01*
X002776Y002579D01*
X002556Y002532D02*
X002007Y002532D01*
X002007Y002544D02*
X001996Y002582D01*
X001977Y002616D01*
X001949Y002644D01*
X001915Y002664D01*
X001876Y002674D01*
X001535Y002674D01*
X001535Y002203D01*
X001438Y002203D01*
X001438Y002674D01*
X001097Y002674D01*
X001059Y002664D01*
X001025Y002644D01*
X000997Y002616D01*
X000977Y002582D01*
X000967Y002544D01*
X000967Y002203D01*
X001438Y002203D01*
X001438Y002106D01*
X000967Y002106D01*
X000967Y001765D01*
X000977Y001726D01*
X000997Y001692D01*
X001025Y001664D01*
X001059Y001645D01*
X001097Y001634D01*
X001438Y001634D01*
X001438Y002106D01*
X001535Y002106D01*
X001535Y001634D01*
X001876Y001634D01*
X001915Y001645D01*
X001949Y001664D01*
X001977Y001692D01*
X001996Y001726D01*
X002007Y001765D01*
X002007Y002106D01*
X001535Y002106D01*
X001535Y002203D01*
X002007Y002203D01*
X002007Y002544D01*
X001963Y002630D02*
X002556Y002630D01*
X002615Y002729D02*
X001687Y002729D01*
X001824Y002827D02*
X003674Y002827D01*
X003674Y002729D02*
X002937Y002729D01*
X002610Y002433D02*
X002007Y002433D01*
X002007Y002335D02*
X003674Y002335D01*
X003674Y002236D02*
X002007Y002236D01*
X001535Y002236D02*
X001438Y002236D01*
X001438Y002138D02*
X000351Y002138D01*
X000351Y002236D02*
X000967Y002236D01*
X000967Y002335D02*
X000351Y002335D01*
X000351Y002433D02*
X000967Y002433D01*
X000967Y002532D02*
X000351Y002532D01*
X000351Y002630D02*
X001010Y002630D01*
X001286Y002729D02*
X000351Y002729D01*
X000351Y002827D02*
X001149Y002827D01*
X001073Y002926D02*
X000351Y002926D01*
X000351Y003024D02*
X001032Y003024D01*
X001017Y003123D02*
X000351Y003123D01*
X000351Y003221D02*
X001017Y003221D01*
X001046Y003320D02*
X000351Y003320D01*
X000351Y003418D02*
X001087Y003418D01*
X001184Y003517D02*
X000351Y003517D01*
X000351Y003615D02*
X001371Y003615D01*
X001322Y003714D02*
X000351Y003714D01*
X000351Y003812D02*
X001164Y003812D01*
X001079Y003911D02*
X000351Y003911D01*
X000351Y004009D02*
X001038Y004009D01*
X001017Y004108D02*
X000351Y004108D01*
X000351Y004206D02*
X001017Y004206D01*
X001040Y004305D02*
X000351Y004305D01*
X000351Y004403D02*
X001081Y004403D01*
X001169Y004502D02*
X000351Y004502D01*
X001638Y004600D02*
X003624Y004600D01*
X003624Y004502D02*
X002514Y004502D01*
X002238Y004502D02*
X001804Y004502D01*
X001892Y004403D02*
X002156Y004403D01*
X002156Y004305D02*
X001933Y004305D01*
X001957Y004206D02*
X002187Y004206D01*
X001957Y004108D02*
X005136Y004108D01*
X005326Y004229D02*
X005226Y004329D01*
X002376Y004329D01*
X001809Y003812D02*
X006998Y003812D01*
X006956Y003714D02*
X001651Y003714D01*
X001602Y003615D02*
X006956Y003615D01*
X007027Y003517D02*
X001789Y003517D01*
X001901Y002926D02*
X003674Y002926D01*
X004504Y002926D02*
X009768Y002926D01*
X009984Y002926D02*
X012768Y002926D01*
X012706Y003024D02*
X010083Y003024D01*
X010096Y003123D02*
X012706Y003123D01*
X012757Y003221D02*
X010095Y003221D01*
X012526Y004329D02*
X012976Y004329D01*
X014375Y001941D02*
X014648Y001941D01*
X014648Y001842D02*
X014446Y001842D01*
X014446Y001744D02*
X014648Y001744D01*
X014648Y001645D02*
X014406Y001645D01*
X014527Y001547D02*
X014648Y001547D01*
X014648Y001448D02*
X014563Y001448D01*
X014563Y001350D02*
X014648Y001350D01*
X014648Y001251D02*
X014563Y001251D01*
X014563Y001153D02*
X014648Y001153D01*
X014006Y001744D02*
X011267Y001744D01*
X012165Y001547D02*
X012431Y001547D01*
X012453Y001569D02*
X012395Y001511D01*
X012395Y001034D01*
X012453Y000976D01*
X012930Y000976D01*
X012988Y001034D01*
X012988Y001511D01*
X012930Y001569D01*
X012453Y001569D01*
X012395Y001448D02*
X012201Y001448D01*
X012201Y001350D02*
X012395Y001350D01*
X012395Y001251D02*
X012201Y001251D01*
X012201Y001153D02*
X012395Y001153D01*
X012395Y001054D02*
X012201Y001054D01*
X011607Y001054D02*
X011413Y001054D01*
X011413Y001153D02*
X011607Y001153D01*
X010820Y001153D02*
X010626Y001153D01*
X010626Y001054D02*
X010820Y001054D01*
X010032Y001054D02*
X009839Y001054D01*
X009839Y001153D02*
X010032Y001153D01*
X009245Y001251D02*
X008513Y001251D01*
X008569Y001350D02*
X008595Y001428D01*
X008039Y001547D02*
X007557Y001547D01*
X007557Y001645D02*
X007576Y001645D01*
X007604Y001744D02*
X007516Y001744D01*
X007460Y001842D02*
X007657Y001842D01*
X007743Y001941D02*
X007361Y001941D01*
X006814Y001941D02*
X004450Y001941D01*
X003727Y001941D02*
X002007Y001941D01*
X002007Y002039D02*
X003674Y002039D01*
X003674Y002138D02*
X001535Y002138D01*
X001535Y002039D02*
X001438Y002039D01*
X001438Y001941D02*
X001535Y001941D01*
X001535Y001842D02*
X001438Y001842D01*
X001438Y001744D02*
X001535Y001744D01*
X001535Y001645D02*
X001438Y001645D01*
X001058Y001645D02*
X000351Y001645D01*
X000351Y001547D02*
X006617Y001547D01*
X006618Y001645D02*
X001916Y001645D01*
X002001Y001744D02*
X006659Y001744D01*
X006715Y001842D02*
X002007Y001842D01*
X001535Y002335D02*
X001438Y002335D01*
X001438Y002433D02*
X001535Y002433D01*
X001535Y002532D02*
X001438Y002532D01*
X001438Y002630D02*
X001535Y002630D01*
X000967Y002039D02*
X000351Y002039D01*
X000351Y001941D02*
X000967Y001941D01*
X000967Y001842D02*
X000351Y001842D01*
X000351Y001744D02*
X000972Y001744D01*
X000351Y001448D02*
X006621Y001448D01*
X006662Y001350D02*
X000351Y001350D01*
X000351Y001251D02*
X006722Y001251D01*
X006820Y001153D02*
X000351Y001153D01*
X007355Y001153D02*
X007750Y001153D01*
X007643Y001277D02*
X007606Y001350D01*
X007577Y001448D02*
X007554Y001448D01*
X012952Y001547D02*
X013218Y001547D01*
X013182Y001448D02*
X012988Y001448D01*
X012988Y001350D02*
X013182Y001350D01*
X013182Y001251D02*
X012988Y001251D01*
X012988Y001153D02*
X013182Y001153D01*
X013182Y001054D02*
X012988Y001054D01*
X006994Y004699D02*
X004554Y004699D01*
X004554Y004797D02*
X006895Y004797D01*
X006797Y004896D02*
X004554Y004896D01*
X006241Y005388D02*
X006304Y005388D01*
X006076Y005829D02*
X007076Y004829D01*
M02*
