%
M48
M72
T01C0.0120
T02C0.0394
T03C0.0400
%
T01
X2776Y2579
X5326Y2529
X7176Y3679
X5326Y4229
X2376Y4329
X9526Y1879
X10676Y1729
X11376Y2179
X9876Y3129
X11326Y3679
X12526Y4329
X13276Y4629
X12126Y4729
X11276Y5179
X10626Y4679
X12926Y5679
X14126Y3679
X13876Y3079
X12926Y3079
X14226Y1779
T02
X1487Y2154
X1487Y3154
X1487Y4154
X1487Y5154
X7087Y1550
X8087Y1550
T03
X6076Y5829
X7076Y5829
X8076Y5829
M30
